<svg height='300px' width='300px'  fill="#000000" xmlns="http://www.w3.org/2000/svg" data-name="Layer 1" viewBox="0 0 90.05 96" x="0px" y="0px"><title>02</title><path d="M78,43.75s-3.12-6-8.92-6.47c0,0-1.56-4.56-4.68-7.08a12.83,12.83,0,0,0-9.77,4.67c-8.22,10.23-15.8,19.66-18.41,21.6-11,8.2-28.83,22.32-31.15,33.67-2.45,12,37.66,11.13,62-8.92,22.53-18.55,20.07-29.89,19.18-35C86.27,46.2,81.59,43.75,78,43.75Z" transform="translate(-4.97 -2)"></path><path d="M93,3.49A2.93,2.93,0,0,0,90.81,2C89.47,2,88.3,3,90,5c0,0,1,1.16.5,3.85,0,0-1.84,13.39-9.79,18.15a19.33,19.33,0,0,1-8.11,2.26l-3.84.14s2.34,2.79,2.54,5.29a10.31,10.31,0,0,1,8.36,6.22,24.31,24.31,0,0,1,5.82,1.57l-1.33-4.11a5.48,5.48,0,0,1,0-3.49,22.57,22.57,0,0,1,4.3-7.46C92.31,23.06,98.17,6,93,3.49Z" transform="translate(-4.97 -2)"></path></svg>