<?xml version="1.0" encoding="iso-8859-1"?>
<!-- Uploaded to: SVG Repo, www.svgrepo.com, Generator: SVG Repo Mixer Tools -->
<svg fill="#000000" version="1.1" id="Layer_1" xmlns="http://www.w3.org/2000/svg" xmlns:xlink="http://www.w3.org/1999/xlink" 
	 viewBox="0 0 512 512" xml:space="preserve">
<g>
	<g>
		<path d="M496.275,266.121v-31.652h-8.348V88.514l-31.826-74.261l-31.826,74.261v145.954h-16.696V88.514l-31.826-74.261
			l-31.826,74.261v145.954h-15.652V88.514l-31.826-74.261l-31.826,74.261v145.954h-17.739V88.514l-31.826-74.261l-31.826,74.261
			v145.954h-14.609V88.482L136.275,14.61l-32.348,73.872v145.987H88.275V88.546L56.971,13.88L25.666,88.546v145.922h-9.391v31.652H0
			V498.12h512V266.121H496.275z M456.101,53.987l13.374,31.208L456,89.688l-13.299-4.434L456.101,53.987z M439.927,101.195
			l8.348,2.783v65.794h15.652v-65.861l8.348-2.783v133.34h-8.348v-48h-15.652v48h-8.348V101.195z M375.753,53.987l13.418,31.31
			l-13.172,4.391l-13.603-4.535L375.753,53.987z M359.579,101.08l9.391,3.13v34.257h15.652v-34.79l7.304-2.434v133.224h-7.304
			V154.12h-15.652v80.348h-9.391V101.08z M296.448,53.989l13.333,31.106L296,89.688l-12.995-4.331L296.448,53.989z M280.275,101.311
			l7.304,2.434v66.026h15.652v-65.628l9.391-3.13v133.456h-9.391v-48h-15.652v48h-7.304V101.311z M215.058,53.988l13.505,31.512
			L216,89.688l-14.212-4.737L215.058,53.988z M198.884,100.848l10.435,3.478v42.489h15.652v-43.252l6.261-2.087v132.992h-6.261
			v-73.043h-15.652v73.043h-10.435V100.848z M136.275,53.632l13.743,31.384L136,89.688l-13.537-4.513L136.275,53.632z
			 M119.579,101.08l7.304,2.434v18.258h15.652v-17.398l10.435-3.478v133.571h-10.435v-96h-15.652v96h-7.304V101.08z M56.97,54.362
			l12.877,30.711L56,89.688L43.856,85.64L56.97,54.362z M41.319,101.66l6.261,2.087v74.374h15.652v-73.977l9.391-3.13v133.456
			h-9.391v-40.696H47.579v40.696h-6.261V101.66z M31.927,250.121h448.695v16H31.927V250.121z M495.999,449.425h-23.724v15.652
			h23.724v17.043H16.001v-17.042h392.622v-15.652H16.001V282.121h479.999V449.425z"/>
	</g>
</g>
<g>
	<g>
		<rect x="425.321" y="449.426" width="30.261" height="15.652"/>
	</g>
</g>
<g>
	<g>
		<rect x="32.971" y="418.121" width="14.609" height="15.652"/>
	</g>
</g>
<g>
	<g>
		<rect x="55.927" y="418.121" width="15.652" height="15.652"/>
	</g>
</g>
<g>
	<g>
		<rect x="80.974" y="418.121" width="15.652" height="15.652"/>
	</g>
</g>
</svg>