<?xml version="1.0" encoding="iso-8859-1"?>
<!-- Generator: Adobe Illustrator 19.0.0, SVG Export Plug-In . SVG Version: 6.00 Build 0)  -->
<svg version="1.1" id="Layer_1" xmlns="http://www.w3.org/2000/svg" xmlns:xlink="http://www.w3.org/1999/xlink" x="0px" y="0px"
	 viewBox="0 0 496 496" style="enable-background:new 0 0 496 496;" xml:space="preserve">
<g>
	<g>
		<g>
			<path d="M433.896,384H448v-16h-12.24C464.32,328.568,480,280.936,480,232C480,104.08,375.92,0,248,0S16,104.08,16,232
				c0,48.936,15.68,96.568,44.24,136H48v16h14.104l-20.568,96H24v16h448v-16h-17.536L433.896,384z M32,232
				c0-119.104,96.896-216,216-216s216,96.896,216,216c0,49.512-17.232,97.616-48.4,136h-37.416C391.528,356.264,400,339.12,400,320
				c0-25.12-14.584-46.848-35.704-57.32C376.216,253.944,384,239.88,384,224c0-26.472-21.528-48-48-48s-48,21.528-48,48
				c0,15.88,7.784,29.944,19.696,38.68C286.584,273.152,272,294.88,272,320c0,19.12,8.472,36.264,21.808,48H200v-64h56.648l-38.4-48
				h29.48l-35-48h17.704L176,120.904L121.56,208h17.704l-35,48h29.488l-38.4,48H152v64H80.4C49.232,329.616,32,281.512,32,232z
				 M336,272c26.472,0,48,21.528,48,48s-21.528,48-48,48s-48-21.528-48-48S309.528,272,336,272z M304,224c0-17.648,14.352-32,32-32
				s32,14.352,32,32s-14.352,32-32,32S304,241.648,304,224z M128.648,288l38.4-48h-31.312l35-48H150.44L176,151.096L201.56,192
				h-20.296l35,48h-31.312l38.4,48H128.648z M184,304v64h-16v-64H184z M57.896,480l3.424-16H88v-16H64.752l6.856-32H88v-16H75.04
				l3.432-16h339.072l3.432,16H408v16h16.392l6.856,32H408v16h26.68l3.432,16H57.896z"/>
			<path d="M128,464h240v-64H128V464z M144,416h208v32H144V416z"/>
			<rect x="312" y="208" width="16" height="16"/>
			<rect x="344" y="208" width="16" height="16"/>
			<rect x="328" y="280" width="16" height="16"/>
			<rect x="328" y="312" width="16" height="16"/>
			<rect x="328" y="344" width="16" height="16"/>
			<rect x="216" y="32" width="16" height="16"/>
			<rect x="256" y="64" width="16" height="16"/>
			<rect x="320" y="104" width="16" height="16"/>
			<rect x="336" y="48" width="16" height="16"/>
			<rect x="200" y="80" width="16" height="16"/>
			<rect x="144" y="48" width="16" height="16"/>
			<rect x="80" y="136" width="16" height="16"/>
			<rect x="128" y="120" width="16" height="16"/>
			<rect x="392" y="152" width="16" height="16"/>
			<rect x="432" y="208" width="16" height="16"/>
			<rect x="240" y="152" width="16" height="16"/>
		</g>
	</g>
</g>
<g>
</g>
<g>
</g>
<g>
</g>
<g>
</g>
<g>
</g>
<g>
</g>
<g>
</g>
<g>
</g>
<g>
</g>
<g>
</g>
<g>
</g>
<g>
</g>
<g>
</g>
<g>
</g>
<g>
</g>
</svg>
