<?xml version="1.0" encoding="iso-8859-1"?>
<!-- Uploaded to: SVG Repo, www.svgrepo.com, Generator: SVG Repo Mixer Tools -->
<svg fill="#000000" height="800px" width="800px" version="1.1" id="Layer_1" xmlns="http://www.w3.org/2000/svg" xmlns:xlink="http://www.w3.org/1999/xlink" 
	 viewBox="0 0 512 512" xml:space="preserve">
<g>
	<g>
		<g>
			<path d="M474.433,218.339v-31.351c0-69.695-167.048-83.669-237.21-83.669C167.192,103.318,0,117.277,0,186.988v138.025
				c0,69.703,167.076,83.669,237.223,83.669c70.039,0,237.21-13.966,237.21-83.669v-28.928c20.834-0.71,37.567-17.869,37.567-38.872
				C512,236.208,495.267,219.05,474.433,218.339z M237.223,143.567c122.539,0,192.142,29.235,196.922,43.414
				c-1.021,3.092-7.093,7.406-9.834,9.182c-91.401-39.076-282.826-39.059-374.19,0c-2.694-1.743-8.88-6.228-9.835-9.182
				C44.987,173.02,113.819,143.567,237.223,143.567z M360.51,218.742c-73.042,15.574-173.476,15.587-246.584,0
				C186.981,203.253,287.403,203.24,360.51,218.742z M434.185,324.894L434.185,324.894c-3.598,13.317-71.812,43.537-196.961,43.537
				c-121.888,0-193.127-29.294-196.975-43.537v-88.053c88.791,44.863,303.95,45.256,393.936,0V324.894z"/>
			<circle cx="237.213" cy="316.972" r="23.799"/>
			<circle cx="170.131" cy="316.972" r="23.799"/>
			<circle cx="304.294" cy="316.972" r="23.799"/>
		</g>
	</g>
</g>
</svg>