<?xml version="1.0" encoding="UTF-8" standalone="no"?>
<!-- Created with Inkscape (http://www.inkscape.org/) -->
<svg xmlns:dc="http://purl.org/dc/elements/1.1/" xmlns:cc="http://creativecommons.org/ns#" xmlns:rdf="http://www.w3.org/1999/02/22-rdf-syntax-ns#" xmlns:svg="http://www.w3.org/2000/svg" xmlns="http://www.w3.org/2000/svg" xmlns:sodipodi="http://sodipodi.sourceforge.net/DTD/sodipodi-0.dtd" xmlns:inkscape="http://www.inkscape.org/namespaces/inkscape" width="664.91272" height="178.51979" id="svg2" sodipodi:version="0.32" inkscape:version="0.46" sodipodi:docname="skeleton_hand_pointing.svg" inkscape:output_extension="org.inkscape.output.svg.inkscape" version="1.0">
  <defs id="defs4">
    <inkscape:perspective sodipodi:type="inkscape:persp3d" inkscape:vp_x="0 : 526.18109 : 1" inkscape:vp_y="0 : 1000 : 0" inkscape:vp_z="744.09448 : 526.18109 : 1" inkscape:persp3d-origin="372.04724 : 350.78739 : 1" id="perspective10"/>
    <inkscape:perspective id="perspective2390" inkscape:persp3d-origin="372.04724 : 350.78739 : 1" inkscape:vp_z="744.09448 : 526.18109 : 1" inkscape:vp_y="0 : 1000 : 0" inkscape:vp_x="0 : 526.18109 : 1" sodipodi:type="inkscape:persp3d"/>
  </defs>
  <sodipodi:namedview id="base" pagecolor="#ffffff" bordercolor="#666666" borderopacity="1.0" gridtolerance="10000" guidetolerance="10" objecttolerance="10" inkscape:pageopacity="0.0" inkscape:pageshadow="2" inkscape:zoom="0.7587462" inkscape:cx="163.03905" inkscape:cy="43.590056" inkscape:document-units="px" inkscape:current-layer="layer1" showgrid="false" inkscape:window-width="1105" inkscape:window-height="931" inkscape:window-x="1" inkscape:window-y="3"/>
  <metadata id="metadata7">
    <rdf:RDF>
      <cc:Work rdf:about="">
        <dc:format>image/svg+xml</dc:format>
        <dc:type rdf:resource="http://purl.org/dc/dcmitype/StillImage"/>
      </cc:Work>
    </rdf:RDF>
  </metadata>
  <g inkscape:label="Layer 1" inkscape:groupmode="layer" id="layer1" transform="translate(-42.665221,-691.22724)">
    <path style="fill:none;fill-rule:evenodd;stroke:#000000;stroke-width:5;stroke-linecap:butt;stroke-linejoin:miter;stroke-miterlimit:4.19999980999999960;stroke-dasharray:none;stroke-opacity:1" d="M 262.85715,705.57646 C 295.26195,703.10789 303.29772,685.81868 320.00001,698.07647 C 345.78382,716.99918 309.68347,708.35544 316.78572,743.79075 C 318.76747,753.67831 312.81231,757.97957 309.64286,759.50504 C 299.5864,764.34524 289.22073,753.98554 275.71429,751.6479 C 270.08372,750.67338 263.1018,748.94317 245.00001,745.57647 C 230.06185,742.79817 212.71931,740.71013 196.07143,739.50504 C 180.00636,738.34214 152.14286,737.36218 146.07143,737.36218 C 140,737.36218 58.571429,738.79075 52.142858,738.79075 C 45.714286,738.79075 44.642858,720.21933 45.357143,715.93361 C 46.071429,711.6479 43.928572,711.29075 49.642858,711.6479 C 122.57867,711.44364 230.45069,708.04515 262.85715,705.57646 z" id="path2400" sodipodi:nodetypes="cssssssssscs"/>
    <path style="fill:none;fill-rule:evenodd;stroke:#000000;stroke-width:5;stroke-linecap:butt;stroke-linejoin:round;stroke-miterlimit:4.19999980999999960;stroke-dasharray:none;stroke-opacity:1" d="M 339.98513,706.35203 C 352.12799,705.99489 352.82433,705.82901 357.82433,710.47186 C 362.82433,715.11472 363.18147,715.82901 362.82433,721.90044 C 362.46718,727.97186 359.96718,730.11472 360.32433,737.25758 C 360.68147,744.40044 362.12799,744.92346 359.62799,747.06632 C 357.12799,749.20917 354.2529,749.75758 352.11004,754.40044 C 349.96718,759.04329 350.32432,758.68615 349.61004,765.47187 C 348.89576,772.25758 348.13815,774.27962 343.13815,774.41838 C 337.55013,774.57347 336.41921,770.07208 332.58973,767.5714 C 325.18691,762.73727 326.0186,769.78981 320.43945,760.83644 C 319.15345,753.14576 326.62159,753.12282 324.35007,742.7342 C 323.65925,739.57477 321.05656,730.06088 327.79895,722.17836 C 333.78995,715.17429 333.73296,712.91802 339.98513,706.35203 z" id="path2402" sodipodi:nodetypes="csssssssscssc"/>
    <path style="fill:none;fill-opacity:0;fill-rule:evenodd;stroke:#000000;stroke-width:5;stroke-linecap:butt;stroke-linejoin:round;stroke-miterlimit:4.19999980999999960;stroke-dasharray:none;stroke-opacity:1" d="M 370.07922,719.54836 C 372.49256,715.07139 379.28571,712.36218 382.85714,717.00504 C 386.42857,721.6479 392.14286,722.71932 392.14286,722.71932 C 392.14286,722.71932 400.35714,722.71932 412.14286,723.07647 C 423.92857,723.43361 426.72444,723.41567 445.50508,723.01519 C 464.78972,722.60397 469.64286,722.00504 478.21429,722.36218 C 486.78572,722.71932 494.09615,720.82323 498.21429,723.79075 C 502.67488,727.00504 501.00106,730.01423 501.34191,737.36962 C 501.57588,742.41857 503.92857,746.29075 503.92857,749.86218 C 503.92857,753.43361 504.72197,755.03688 497.20414,758.34695 C 488.98985,761.96367 486.23731,759.77288 481.11475,755.04601 C 474.22519,748.68863 476.62808,748.57075 472.40282,744.6276 C 468.36722,740.86144 460.39762,739.42132 448.98985,738.13775 C 430.68532,738.17888 413.48316,740.66309 395.41842,743.55616 C 388.72602,744.67764 381.21937,750.176 376.42857,746.6479 C 371.54824,743.05387 366.3733,739.55865 367.35206,730.29855 L 370.07922,719.54836 z" id="path2404" sodipodi:nodetypes="cscsssssssssccscc"/>
    <path style="fill:none;fill-rule:evenodd;stroke:#000000;stroke-width:5;stroke-linecap:butt;stroke-linejoin:round;stroke-miterlimit:4.19999980999999960;stroke-dasharray:none;stroke-opacity:1" d="M 532.19349,729.75263 C 543.76175,732.86736 551.19938,733.55311 562.19932,735.78152 C 568.46287,737.27219 578.41486,739.85249 586.1552,740.14461 C 599.42232,740.64531 587.61529,764.16143 577.63066,756.90074 C 565.09032,747.78157 541.30138,741.38264 527.08706,745.33093 C 522.83005,746.51339 511.19616,758.82305 509.9268,746.07322 C 508.65256,733.27438 509.65696,730.17402 510.34575,728.91679 C 515.47183,719.56042 520.73376,726.66713 532.19349,729.75263 z" id="path2408" sodipodi:nodetypes="ccssssss"/>
    <path style="fill:none;fill-rule:evenodd;stroke:#000000;stroke-width:5;stroke-linecap:butt;stroke-linejoin:round;stroke-miterlimit:4.19999980999999960;stroke-dasharray:none;stroke-opacity:1" d="M 598.32324,748.41194 C 603.24403,738.43725 605.28862,746.08072 613.85896,748.76908 C 623.93416,751.9295 627.31239,753.40209 641.18039,754.12623 C 645.81481,754.36822 650.45429,754.0615 650.82324,756.98337 C 651.06458,758.89463 652.97497,763.4032 649.93039,765.91194 C 646.89537,768.4128 645.75979,766.47528 636.89467,763.76909 C 625.9834,760.43829 616.72455,760.93318 606.89467,762.38385 C 593.84936,764.30904 592.27296,760.67617 598.32324,748.41194 z" id="path2410" sodipodi:nodetypes="csssssss"/>
    <path style="fill:none;fill-rule:evenodd;stroke:#000000;stroke-width:5;stroke-linecap:butt;stroke-linejoin:round;stroke-miterlimit:4.19999980999999960;stroke-dasharray:none;stroke-opacity:1" d="M 663.25801,755.18028 C 674.39689,756.34044 685.57557,756.42154 696.72723,755.44905 C 704.57033,754.85901 705.27402,757.30484 705.04263,758.75908 C 704.63407,761.32682 697.23749,762.78195 695.67886,763.13079 C 685.64753,764.7375 673.10894,760.75489 666.8043,766.80737 C 659.94103,773.19283 657.04918,765.11746 657.16762,761.49882 C 657.28532,757.9031 658.57638,754.58684 663.25801,755.18028 z" id="path2412" sodipodi:nodetypes="ccscczc"/>
    <path style="fill:none;fill-rule:evenodd;stroke:#000000;stroke-width:5;stroke-linecap:butt;stroke-linejoin:round;stroke-miterlimit:4.19999980999999960;stroke-dasharray:none;stroke-opacity:1" d="M 500.28101,819.43108 C 500.63815,825.85965 501.44935,833.22408 498.13815,834.2525 C 492.9266,835.87115 490.85259,831.90665 486.70958,832.28821 C 483.31235,832.60109 481.16187,827.64206 482.24529,823.71678 C 483.47802,819.25053 486.91617,816.83768 488.85244,808.0025 C 492.00476,793.6185 492.95957,788.18107 492.95957,781.03822 C 492.95957,773.89536 487.14386,773.25616 490.10243,767.28821 C 492.05718,763.34513 505.281,762.46679 505.281,762.46679 C 515.33887,765.48267 508.86097,777.45578 507.78101,781.7525 C 506.72532,785.95265 500.28101,819.43108 500.28101,819.43108 z" id="path2414" sodipodi:nodetypes="csssszsssc"/>
    <path style="fill:none;fill-opacity:0;fill-rule:evenodd;stroke:#000000;stroke-width:5.52034806999999980;stroke-linecap:butt;stroke-linejoin:round;stroke-miterlimit:4.19999980999999960;stroke-dasharray:none;stroke-opacity:1" d="M 474.32446,816.91012 C 466.53103,813.1799 456.56093,812.73386 450.65048,809.66509 C 447.43195,807.994 443.26435,801.64178 438.12059,802.03576 C 432.53407,802.46366 430.19109,808.23128 432.16891,810.5482 C 433.39244,811.98149 442.47981,812.62471 453.04732,818.64363 C 460.32731,822.79008 464.70378,830.56417 468.08858,827.97701 C 469.97001,826.53894 477.57308,820.33344 474.32446,816.91012 z" id="path2418" sodipodi:nodetypes="csssssc"/>
    <path style="fill:none;fill-rule:evenodd;stroke:#000000;stroke-width:5;stroke-linecap:butt;stroke-linejoin:round;stroke-miterlimit:4.19999980999999960;stroke-dasharray:none;stroke-opacity:1" d="M 429.39648,797.4668 C 427.25363,791.03822 424.66697,795.68852 420.7384,783.9028 C 416.80982,772.11709 416.79188,763.52028 415.36331,761.73457 C 413.93474,759.94885 408.95268,753.18108 409.30982,762.10965 C 409.66697,771.03822 411.66189,780.01012 412.73332,783.93869 C 413.80474,787.86726 413.26172,794.69655 415.82505,798.53822 C 417.81966,801.52755 423.15676,805.10892 426.53934,803.89537 C 428.52583,803.18268 429.39648,797.4668 429.39648,797.4668 z" id="path2420" sodipodi:nodetypes="csssssss"/>
    <path style="fill:none;fill-rule:evenodd;stroke:#000000;stroke-width:5;stroke-linecap:butt;stroke-linejoin:round;stroke-miterlimit:4.19999980999999960;stroke-dasharray:none;stroke-opacity:1" d="M 523.32433,846.80638 C 517.8953,851.88133 513.87269,850.91685 505.8908,853.26539 C 502.83821,854.16358 499.15017,854.98313 495.39093,858.2899 C 491.40444,861.79657 487.22331,870.73826 483.55449,865.7864 C 479.8966,860.8493 482.51102,857.08376 483.16229,853.93614 C 483.81356,850.78852 481.75782,840.27136 487.1784,839.8141 C 495.59161,839.63929 503.72193,840.54889 512.08195,839.15042 C 522.97981,837.21566 534.01519,836.46579 523.32433,846.80638 z" id="path2422" sodipodi:nodetypes="cssssccc"/>
    <path style="fill:none;fill-rule:evenodd;stroke:#000000;stroke-width:5;stroke-linecap:butt;stroke-linejoin:round;stroke-miterlimit:4.19999980999999960;stroke-dasharray:none;stroke-opacity:1" d="M 371.36509,757.03886 C 375.63498,771.8239 376.99575,778.60028 400.9333,801.48287 C 403.10625,803.65475 416.72476,811.42012 416.72476,811.42012 C 416.72476,811.42012 419.54368,814.06155 418.66427,819.34602 C 417.78487,824.6305 408.15825,834.61424 405.75132,836.02396 C 403.3444,837.43369 396.88631,839.25542 394.83008,834.20652 C 392.77385,829.15763 391.22844,817.0975 386.64695,809.81811 C 382.06547,802.53871 369.19503,789.95259 367.09711,788.11431 C 362.74349,784.29949 351.93156,781.86552 353.59275,776.20185 C 354.79896,772.08938 354.45519,759.01617 359.35194,755.07041 C 362.44086,752.58139 369.25467,749.73124 371.36509,757.03886 z" id="path2426" sodipodi:nodetypes="cccssssssss"/>
    <flowRoot xml:space="preserve" id="flowRoot3208" style="font-size:40px;font-style:normal;font-weight:normal;fill:none;fill-opacity:1;stroke:none;stroke-width:1px;stroke-linecap:butt;stroke-linejoin:miter;stroke-opacity:1;font-family:Bitstream Vera Sans"><flowRegion id="flowRegion3210"><rect id="rect3212" width="195.71428" height="78.571426" x="80" y="178.07646" style="fill:none"/></flowRegion><flowPara id="flowPara3214"/></flowRoot>    <flowRoot xml:space="preserve" id="flowRoot3216" style="font-size:40px;font-style:normal;font-weight:normal;fill:none;fill-opacity:1;stroke:none;stroke-width:1px;stroke-linecap:butt;stroke-linejoin:miter;stroke-opacity:1;font-family:Bitstream Vera Sans"><flowRegion id="flowRegion3218"><rect id="rect3220" width="230" height="75.714287" x="32.857143" y="179.50504" style="fill:none"/></flowRegion><flowPara id="flowPara3222"/></flowRoot>    <flowRoot xml:space="preserve" id="flowRoot3224" style="font-size:40px;font-style:normal;font-weight:normal;fill:none;fill-opacity:1;stroke:none;stroke-width:1px;stroke-linecap:butt;stroke-linejoin:miter;stroke-opacity:1;font-family:Bitstream Vera Sans"><flowRegion id="flowRegion3226"><rect id="rect3228" width="320" height="211.42857" x="-22.857143" y="59.505039" style="fill:none"/></flowRegion><flowPara id="flowPara3230"/></flowRoot>    <flowRoot xml:space="preserve" id="flowRoot3232" style="font-size:40px;font-style:normal;font-weight:normal;fill:none;fill-opacity:1;stroke:none;stroke-width:1px;stroke-linecap:butt;stroke-linejoin:miter;stroke-opacity:1;font-family:Bitstream Vera Sans"><flowRegion id="flowRegion3234"><rect id="rect3236" width="165.71428" height="80" x="117.14286" y="193.79076" style="fill:none"/></flowRegion><flowPara id="flowPara3238"/></flowRoot>    <flowRoot xml:space="preserve" id="flowRoot3240" style="font-size:40px;font-style:normal;font-weight:normal;fill:none;fill-opacity:1;stroke:none;stroke-width:1px;stroke-linecap:butt;stroke-linejoin:miter;stroke-opacity:1;font-family:Bitstream Vera Sans"><flowRegion id="flowRegion3242"><rect id="rect3244" width="181.42857" height="85.714287" x="108.57143" y="150.93361" style="fill:none"/></flowRegion><flowPara id="flowPara3246"/></flowRoot>    <flowRoot xml:space="preserve" id="flowRoot3258" style="font-size:40px;font-style:normal;font-weight:normal;fill:none;fill-opacity:1;stroke:none;stroke-width:1px;stroke-linecap:butt;stroke-linejoin:miter;stroke-opacity:1;font-family:Bitstream Vera Sans"><flowRegion id="flowRegion3260"><rect id="rect3262" width="182.85715" height="97.14286" x="70" y="115.21932" style="fill:none"/></flowRegion><flowPara id="flowPara3264"/></flowRoot>    <flowRoot xml:space="preserve" id="flowRoot3266" style="font-size:40px;font-style:normal;font-weight:normal;fill:none;fill-opacity:1;stroke:none;stroke-width:1px;stroke-linecap:butt;stroke-linejoin:miter;stroke-opacity:1;font-family:Bitstream Vera Sans"><flowRegion id="flowRegion3268"><rect id="rect3270" width="661.42859" height="344.28571" x="28.571428" y="608.07648" style="fill:none"/></flowRegion><flowPara id="flowPara3272"/></flowRoot>    <path style="fill:none;fill-rule:evenodd;stroke:#000000;stroke-width:5;stroke-linecap:butt;stroke-linejoin:round;stroke-miterlimit:4.19999980999999960;stroke-dasharray:none;stroke-opacity:1" d="M 471.7324,834.81029 C 471.7324,834.81029 460.76647,836.90237 455.34926,834.81579 C 451.0222,833.14912 444.2397,830.93617 440.56249,828.46999 C 432.07959,822.7808 431.04829,814.18986 426.18784,817.76717 C 421.68828,821.07887 422.72996,824.82534 420.446,831.30915 C 418.48448,836.87757 408.80722,843.64518 415.68025,846.80804 C 421.18102,849.33941 423.08131,846.00907 431.38779,847.94733 C 446.58181,851.49277 448.75385,851.99345 458.46622,855.20132 C 467.16487,857.30743 468.12817,869.47029 475.51464,861.34483 C 477.94386,858.67259 479.04084,836.76858 471.7324,834.81029 z" id="path2424" sodipodi:nodetypes="csssssscss"/>
    <flowRoot xml:space="preserve" id="flowRoot3302" style="font-size:40px;font-style:normal;font-weight:normal;fill:none;fill-opacity:1;stroke:none;stroke-width:1px;stroke-linecap:butt;stroke-linejoin:miter;stroke-opacity:1;font-family:Bitstream Vera Sans"><flowRegion id="flowRegion3304"><rect id="rect3306" width="132.85715" height="132.85715" x="68.571426" y="90.933609" style="fill:none"/></flowRegion><flowPara id="flowPara3308"/></flowRoot>    <path style="fill:none;fill-rule:evenodd;stroke:#000000;stroke-width:5.52034807;stroke-linecap:butt;stroke-linejoin:round;stroke-miterlimit:4.19999981;stroke-dasharray:none;stroke-opacity:1" d="M 480.97009,805.26121 C 474.02573,800.1204 464.32124,797.79126 459.10021,793.65707 C 456.25709,791.40581 453.37009,784.37837 448.24499,783.7895 C 442.67872,783.14994 439.28262,788.36933 440.78666,791.01844 C 441.7161,792.65549 449.16107,794.47248 459.75042,802.92725 C 463.49679,805.91843 468.48243,815.0629 472.74818,814.94431 C 475.20238,814.87608 483.60557,809.52419 480.97009,805.26121 z" id="path3310" sodipodi:nodetypes="csssssc"/>
    <path style="fill:none;fill-rule:evenodd;stroke:#000000;stroke-width:4.71288967000000000;stroke-linecap:butt;stroke-linejoin:round;stroke-miterlimit:4.19999980999999960;stroke-dasharray:none;stroke-opacity:1" d="M 437.08791,782.5618 C 438.51002,776.69575 434.03308,778.54856 436.64027,767.79414 C 439.24745,757.03973 443.52288,750.84079 443.22328,748.72977 C 442.92368,746.61873 442.14844,738.86779 437.99017,745.50156 C 433.83191,752.13535 431.0172,759.74675 429.94969,763.19398 C 428.88215,766.64118 425.02124,771.24356 425.24067,775.49036 C 425.4114,778.79494 428.07283,784.45729 431.49803,785.53842 C 433.50956,786.17334 437.08791,782.5618 437.08791,782.5618 z" id="path3312" sodipodi:nodetypes="csssssss"/>
    <path style="fill:none;fill-rule:evenodd;stroke:#000000;stroke-width:5;stroke-linecap:butt;stroke-linejoin:round;stroke-opacity:1;stroke-miterlimit:4;stroke-dasharray:none" d="M 328.04704,26.996909 C 328.04704,26.996909 324.46125,17.062394 332.08765,16.390306 C 338.88472,15.791304 343.8082,20.374102 356.07876,21.693607 C 372.67285,23.478039 417.44554,22.198684 422.24376,21.441069 C 427.04199,20.683455 440.13408,17.807231 452.54834,20.935994 C 463.41783,23.67543 458.10418,33.310362 458.10418,33.310362" id="path3316" transform="translate(42.665221,691.22724)" sodipodi:nodetypes="cssssc"/>
    <path style="fill:none;fill-rule:evenodd;stroke:#000000;stroke-width:4;stroke-linecap:butt;stroke-linejoin:round;stroke-miterlimit:4.19999981;stroke-dasharray:none;stroke-opacity:1" d="M 457.73014,775.01014 C 459.33387,771.25807 456.15796,772.04882 459.09811,765.17003 C 462.03826,758.29124 465.57053,754.5977 465.60993,753.16799 C 465.64932,751.7383 466.00923,746.52071 462.50561,750.51418 C 459.00199,754.50763 456.27861,759.28117 455.18255,761.4634 C 454.08647,763.64562 451.0089,766.32065 450.6756,769.15929 C 450.41626,771.36812 451.54183,775.38488 453.68999,776.43742 C 454.95154,777.05554 457.73014,775.01014 457.73014,775.01014 z" id="path3358" sodipodi:nodetypes="csssssss"/>
    <path style="fill:none;fill-rule:evenodd;stroke:#000000;stroke-width:4;stroke-linecap:butt;stroke-linejoin:round;stroke-miterlimit:4.19999981;stroke-dasharray:none;stroke-opacity:1" d="M 488.03847,794.72064 C 483.13795,790.75085 476.28964,788.95226 472.60524,785.75979 C 470.5989,784.02134 468.56159,778.59467 464.94489,778.13994 C 463.33242,777.9372 461.97803,778.49687 461.01496,779.36869 C 459.9738,780.31119 459.39002,781.61852 459.43199,782.72172 C 459.44577,783.08393 459.52701,783.42414 459.68166,783.72221 C 459.87723,784.09914 460.56662,784.38803 461.61069,784.81087 C 464.06822,785.80614 468.4908,787.54358 473.06409,792.91833 C 477.09294,797.65324 479.54485,803.6638 482.2364,802.19804 C 483.73249,801.38329 489.83111,797.79202 488.03847,794.72064 z" id="path3360" sodipodi:nodetypes="cssssssssc"/>
  </g>
</svg>