<?xml version="1.0" encoding="UTF-8"?>
<svg width="1021.06" height="568.468" version="1.1" viewBox="0 0 255.266 142.117" xmlns="http://www.w3.org/2000/svg" xmlns:xlink="http://www.w3.org/1999/xlink">
  <defs>
    <path id="char46" d="m1336 0h-245l-706 1332v-1332h-185v1489h307l644-1216v1216h185z"/>
    <path id="char47" d="m1310 1318q91-100 139-245t49-329q0-184-49-329t-139-243q-92-101-217-152t-287-51q-157 0-285 52t-219 151q-90 99-138 243t-49 329q0 182 48 326t140 248q88 98 218 150t285 52q160 0 287-52t217-150zm-18-574q0 290-130 447t-355 158q-227 0-356-157t-130-448q0-293 132-448t354-156q222 0 353 155t132 449z"/>
  </defs>
  <g stroke="#000" stroke-linecap="round" stroke-width="1.5">
    <line x1="58.2036" x2="67.6222" y1="95.1094" y2="89.6716"/>
    <line x1="35.9647" x2="26.5461" y1="95.1094" y2="89.6716"/>
    <line x1="84.5077" x2="102.046" y1="89.6716" y2="99.7972"/>
    <line x1="102.046" x2="128.026" y1="99.7972" y2="84.7972"/>
    <line x1="128.026" x2="154.007" y1="84.7972" y2="99.7972"/>
    <line x1="128.026" x2="128.026" y1="84.7972" y2="64.7061"/>
    <line x1="154.007" x2="171.545" y1="99.7972" y2="89.6716"/>
    <line x1="188.431" x2="197.849" y1="89.6716" y2="95.1094"/>
    <line x1="220.088" x2="229.507" y1="95.1094" y2="89.6716"/>
    <line x1="136.469" x2="145.888" y1="49.9228" y2="44.4849"/>
    <line x1="162.127" x2="171.545" y1="44.4849" y2="49.9228"/>
    <line x1="46.0841" x2="46.0841" y1="119.911" y2="109.681"/>
    <line x1="42.0841" x2="42.0841" y1="119.911" y2="109.681"/>
    <line x1="209.969" x2="209.969" y1="109.681" y2="119.911"/>
    <line x1="213.969" x2="213.969" y1="109.681" y2="119.911"/>
    <line x1="156.007" x2="156.007" y1="29.9136" y2="19.6832"/>
    <line x1="152.007" x2="152.007" y1="29.9136" y2="19.6832"/>
  </g>
  <g>
    <use transform="matrix(.0078125 0 0 -.0078125 37.7873 136.875)" width="100%" height="100%" xlink:href="#char47"/>
    <use transform="matrix(.0078125 0 0 -.0078125 38.0998 106.875)" width="100%" height="100%" xlink:href="#char46"/>
    <use transform="matrix(.0078125 0 0 -.0078125 69.768 91.875)" width="100%" height="100%" xlink:href="#char47"/>
    <use transform="matrix(.0078125 0 0 -.0078125 11.8065 91.875)" width="100%" height="100%" xlink:href="#char47"/>
    <use transform="matrix(.0078125 0 0 -.0078125 121.73 61.875)" width="100%" height="100%" xlink:href="#char47"/>
    <use transform="matrix(.0078125 0 0 -.0078125 173.691 91.875)" width="100%" height="100%" xlink:href="#char47"/>
    <use transform="matrix(.0078125 0 0 -.0078125 205.984 106.875)" width="100%" height="100%" xlink:href="#char46"/>
    <use transform="matrix(.0078125 0 0 -.0078125 231.653 91.875)" width="100%" height="100%" xlink:href="#char47"/>
    <use transform="matrix(.0078125 0 0 -.0078125 205.672 136.875)" width="100%" height="100%" xlink:href="#char47"/>
    <use transform="matrix(.0078125 0 0 -.0078125 148.023 46.875)" width="100%" height="100%" xlink:href="#char46"/>
    <use transform="matrix(.0078125 0 0 -.0078125 147.71 16.875)" width="100%" height="100%" xlink:href="#char47"/>
    <use transform="matrix(.0078125 0 0 -.0078125 173.691 61.875)" width="100%" height="100%" xlink:href="#char47"/>
  </g>
  <g stroke="#000" stroke-linecap="round">
    <g transform="translate(14.8065 11.0062)" stroke-width="1.4">
      <line x1="35.408" x2="41.408" y1="82.6955" y2="82.6955"/>
      <line x1="38.408" x2="38.408" y1="79.6955" y2="85.6955"/>
    </g>
    <line x1="5.70997" x2="11.71" y1="80.1906" y2="80.1906" stroke-width="1.4"/>
    <g transform="translate(18.8065,9.00625)" stroke-width="1.4">
      <line x1="181.293" x2="187.293" y1="84.6955" y2="84.6955"/>
      <line x1="184.293" x2="184.293" y1="81.6955" y2="87.6955"/>
    </g>
    <line x1="243.556" x2="249.556" y1="80.1906" y2="80.1906" stroke-width="1.4"/>
    <g transform="translate(16.8065,3.00625)" stroke-width="1.4">
      <line x1="143.795" x2="149.795" y1="30.4517" y2="30.4517"/>
      <line x1="146.795" x2="146.795" y1="27.4517" y2="33.4517"/>
    </g>
    <line x1="185.595" x2="191.595" y1="50.1906" y2="50.1906" stroke-width="1.4"/>
  </g>
</svg>
