<?xml version="1.0" encoding="iso-8859-1"?>
<!-- Uploaded to: SVG Repo, www.svgrepo.com, Generator: SVG Repo Mixer Tools -->
<svg fill="#000000" height="800px" width="800px" version="1.1" id="Capa_1" xmlns="http://www.w3.org/2000/svg" xmlns:xlink="http://www.w3.org/1999/xlink" 
	 viewBox="0 0 466 466" xml:space="preserve">
<g>
	<path d="M156.556,281.574c-1.593-1.52-3.68-2.356-5.876-2.356c-2.252,0-4.377,0.875-5.997,2.479
		c-1.614,1.606-2.503,3.744-2.503,6.021c0,2.276,0.884,4.413,2.489,6.018c0.026,0.027,0.053,0.053,0.08,0.08
		c1.594,1.549,3.701,2.403,5.931,2.403s4.336-0.854,5.931-2.403c0.037-0.036,0.074-0.072,0.11-0.109
		c1.587-1.603,2.46-3.729,2.46-5.988c0-2.184-0.83-4.262-2.336-5.854C156.75,281.765,156.654,281.668,156.556,281.574z"/>
	<path d="M326.57,293.588c-1.595-1.529-3.687-2.371-5.892-2.371c-2.252,0-4.377,0.875-6.011,2.493
		c-1.605,1.604-2.489,3.738-2.489,6.007c0,2.268,0.879,4.4,2.476,6.003c0.03,0.032,0.062,0.062,0.094,0.094
		c1.595,1.549,3.701,2.403,5.932,2.403c2.229,0,4.336-0.854,5.93-2.403c0.032-0.031,0.064-0.062,0.096-0.094
		c1.597-1.604,2.476-3.736,2.476-6.003c0-2.191-0.835-4.276-2.351-5.869C326.745,293.759,326.659,293.672,326.57,293.588z"/>
	<path d="M346.57,273.588c-1.595-1.529-3.687-2.371-5.892-2.371c-2.252,0-4.377,0.875-6.011,2.493
		c-1.605,1.604-2.489,3.738-2.489,6.007c0,2.268,0.879,4.4,2.476,6.003c0.03,0.032,0.062,0.062,0.094,0.094
		c1.595,1.549,3.701,2.403,5.932,2.403c2.229,0,4.336-0.854,5.93-2.403c0.032-0.031,0.064-0.062,0.096-0.094
		c1.597-1.604,2.476-3.736,2.476-6.003c0-2.191-0.835-4.276-2.351-5.869C346.745,273.759,346.659,273.672,346.57,273.588z"/>
	<path d="M433.86,105.628c-18.332-7.11-42.536-11.026-68.153-11.026c-25.618,0-49.822,3.916-68.154,11.026
		c-20.725,8.038-32.139,19.676-32.139,32.77c0,55.31-44.998,100.307-100.307,100.307S64.8,193.708,64.8,138.398
		c0-12.063-16.273-17.463-32.4-17.463S0,126.334,0,138.398c0,62.237,24.236,120.748,68.244,164.756S170.763,371.398,233,371.398
		c62.236,0,120.748-24.236,164.756-68.244S466,200.634,466,138.398C466,125.304,454.586,113.666,433.86,105.628z M365.707,110.602
		c51.456,0,84.293,16.462,84.293,27.796s-32.837,27.796-84.293,27.796s-84.293-16.463-84.293-27.796
		S314.251,110.602,365.707,110.602z M32.4,136.935c5.131,0,9.149,0.669,12.01,1.463c-2.861,0.795-6.879,1.464-12.01,1.464
		s-9.149-0.669-12.01-1.464C23.251,137.604,27.269,136.935,32.4,136.935z M233,355.398c-114.427,0-208.441-89.03-216.438-201.456
		c4.868,1.295,10.36,1.92,15.838,1.92c6.064,0,12.148-0.764,17.38-2.358c7.428,57.021,56.314,101.201,115.327,101.201
		c41.085,0,77.262-21.413,97.959-53.665c5.85,3.457,12.302,6.573,19.3,9.286c4.007,1.554,8.271,3.009,12.677,4.324
		c0.764,0.228,1.533,0.336,2.291,0.336c3.445,0,6.627-2.244,7.663-5.714c1.264-4.233-1.145-8.69-5.378-9.954
		c-3.998-1.193-7.856-2.508-11.468-3.909c-6.368-2.47-12.188-5.289-17.395-8.404c3.738-8.092,6.574-16.681,8.376-25.641
		c4.911,3.656,11.078,6.957,18.42,9.805c18.332,7.11,42.536,11.026,68.154,11.026s49.822-3.916,68.153-11.026
		c5.562-2.157,10.447-4.576,14.627-7.21c-1.281,10.868-3.368,21.492-6.2,31.812c-21.123,8.011-48.257,12.424-76.58,12.424
		c-12.705,0-25.229-0.885-37.223-2.629c-4.377-0.636-8.433,2.394-9.068,6.765c-0.636,4.372,2.394,8.432,6.766,9.068
		c12.754,1.855,26.052,2.796,39.525,2.796c25.223,0,49.702-3.334,70.428-9.486C405.185,296.825,325.81,355.398,233,355.398z"/>
</g>
</svg>