<?xml version="1.0" encoding="iso-8859-1"?>
<!-- Generator: Adobe Illustrator 18.0.0, SVG Export Plug-In . SVG Version: 6.00 Build 0)  -->
<!DOCTYPE svg PUBLIC "-//W3C//DTD SVG 1.1//EN" "http://www.w3.org/Graphics/SVG/1.1/DTD/svg11.dtd">
<svg version="1.1" id="Capa_1" xmlns="http://www.w3.org/2000/svg" xmlns:xlink="http://www.w3.org/1999/xlink" x="0px" y="0px"
	 viewBox="0 0 293.296 293.296" style="enable-background:new 0 0 293.296 293.296;" xml:space="preserve">
<g>
	<path d="M36.164,237.742l-16.665,16.699c-6.023,6.037-7.612,14.478-4.247,22.587c3.908,9.425,13.606,16.266,23.057,16.268
		c0.002,0,0.002,0,0.004,0c5.332,0,10.199-2.053,14.081-5.94c8.909-8.93,7.685-16.982,6.878-22.311
		c-0.628-4.115-0.836-5.501,2.44-8.788c3.716-3.724,7.218-5.291,12.515-7.663c8.971-4.016,21.25-9.514,40.538-28.84l20.561-20.997
		l-24.537-24.524c-1.976-1.981-3.503-4.239-4.623-6.638L36.164,237.742z"/>
	<path d="M271.677,2.046c-38.582,37.338-149.718,150.127-149.718,150.127c-3.006,3.007-3.006,7.886,0,10.892l35.705,35.697
		c1.504,1.504,3.475,2.259,5.445,2.259s3.94-0.755,5.444-2.259c0,0,44.754-45.061,59.726-60.031
		c18.369-18.365,58.232-73.759,50.522-135.435C278.427,0.296,275.552-1.704,271.677,2.046z"/>
</g>
<g>
</g>
<g>
</g>
<g>
</g>
<g>
</g>
<g>
</g>
<g>
</g>
<g>
</g>
<g>
</g>
<g>
</g>
<g>
</g>
<g>
</g>
<g>
</g>
<g>
</g>
<g>
</g>
<g>
</g>
</svg>
