<?xml version="1.0" encoding="iso-8859-1"?>
<!-- Uploaded to: SVG Repo, www.svgrepo.com, Generator: SVG Repo Mixer Tools -->
<svg fill="#000000" height="800px" width="800px" version="1.1" id="Layer_1" xmlns="http://www.w3.org/2000/svg" xmlns:xlink="http://www.w3.org/1999/xlink" 
	 viewBox="0 0 480 480" xml:space="preserve">
<g>
	<g>
		<g>
			<path d="M373.984,2.688C372.472,0.976,370.288,0,368,0H112c-2.288,0-4.464,0.976-5.984,2.688c-1.52,1.712-2.232,3.992-1.96,6.264
				L152,408.464V456c0,13.232,10.768,24,24,24h128c13.232,0,24-10.768,24-24v-47.504L375.944,8.952
				C376.216,6.68,375.496,4.4,373.984,2.688z M312,456c0,4.416-3.584,8-8,8H176c-4.408,0-8-3.584-8-8v-40h24
				c0,13.232,10.768,24,24,24h48c13.232,0,24-10.768,24-24h24V456z M208,416h64c0,4.416-3.584,8-8,8h-48
				C211.592,424,208,420.416,208,416z M354.184,56H328c-4.424,0-8,3.576-8,8s3.576,8,8,8h24.264l-39.36,328H280h-80h-32.904
				l-39.36-328H152c4.416,0,8-3.576,8-8s-3.584-8-8-8h-26.184l-4.8-40h237.968L354.184,56z"/>
			<path d="M240,216c22.056,0,40-17.944,40-40c0-22.056-17.944-40-40-40c-22.056,0-40,17.944-40,40C200,198.056,217.944,216,240,216
				z M240,152c13.232,0,24,10.768,24,24s-10.768,24-24,24s-24-10.768-24-24S226.768,152,240,152z"/>
			<path d="M232,112v8c0,4.424,3.584,8,8,8s8-3.576,8-8v-8c0-4.424-3.584-8-8-8C235.584,104,232,107.576,232,112z"/>
			<path d="M248,240v-8c0-4.424-3.584-8-8-8c-4.416,0-8,3.576-8,8v8c0,4.424,3.584,8,8,8S248,244.424,248,240z"/>
			<path d="M296,168c-4.424,0-8,3.576-8,8s3.576,8,8,8h8c4.424,0,8-3.576,8-8s-3.576-8-8-8H296z"/>
			<path d="M176,184h8c4.416,0,8-3.576,8-8s-3.584-8-8-8h-8c-4.416,0-8,3.576-8,8S171.584,184,176,184z"/>
			<path d="M279.6,144.4c2.048,0,4.096-0.784,5.656-2.344l5.656-5.656c3.128-3.128,3.128-8.184,0-11.312s-8.184-3.128-11.312,0
				l-5.656,5.656c-3.128,3.128-3.128,8.184,0,11.312C275.504,143.616,277.552,144.4,279.6,144.4z"/>
			<path d="M200.4,226.912l5.656-5.656c3.128-3.128,3.128-8.184,0-11.312c-3.128-3.128-8.184-3.128-11.312,0l-5.656,5.656
				c-3.128,3.128-3.128,8.184,0,11.312c1.56,1.56,3.608,2.344,5.656,2.344C196.792,229.256,198.84,228.48,200.4,226.912z"/>
			<path d="M200.4,125.088c-3.128-3.128-8.184-3.128-11.312,0c-3.128,3.128-3.128,8.184,0,11.312l5.656,5.656
				c1.56,1.56,3.608,2.344,5.656,2.344c2.048,0,4.096-0.784,5.656-2.344c3.128-3.128,3.128-8.184,0-11.312L200.4,125.088z"/>
			<path d="M285.256,209.944c-3.128-3.128-8.184-3.128-11.312,0c-3.128,3.128-3.128,8.184,0,11.312l5.656,5.656
				c1.56,1.56,3.608,2.344,5.656,2.344c2.048,0,4.096-0.784,5.656-2.344c3.128-3.128,3.128-8.184,0-11.312L285.256,209.944z"/>
			<path d="M184,72h16c4.416,0,8-3.576,8-8s-3.584-8-8-8h-16c-4.416,0-8,3.576-8,8S179.584,72,184,72z"/>
			<path d="M232,72h16c4.424,0,8-3.576,8-8s-3.576-8-8-8h-16c-4.416,0-8,3.576-8,8S227.584,72,232,72z"/>
			<path d="M280,72h16c4.424,0,8-3.576,8-8s-3.576-8-8-8h-16c-4.424,0-8,3.576-8,8S275.576,72,280,72z"/>
			<path d="M272,336h-64c-4.416,0-8,3.576-8,8s3.584,8,8,8h64c4.424,0,8-3.576,8-8S276.424,336,272,336z"/>
			<path d="M272,368h-64c-4.416,0-8,3.576-8,8s3.584,8,8,8h64c4.424,0,8-3.576,8-8S276.424,368,272,368z"/>
			<path d="M280,264h-64c-13.232,0-24,10.768-24,24v24c0,4.424,3.584,8,8,8h64c13.232,0,24-10.768,24-24v-24
				C288,267.576,284.424,264,280,264z M272,296c0,4.416-3.584,8-8,8h-56v-16c0-4.416,3.592-8,8-8h56V296z"/>
		</g>
	</g>
</g>
</svg>