<?xml version="1.0" encoding="iso-8859-1"?>
<!-- Uploaded to: SVG Repo, www.svgrepo.com, Generator: SVG Repo Mixer Tools -->
<!DOCTYPE svg PUBLIC "-//W3C//DTD SVG 1.1//EN" "http://www.w3.org/Graphics/SVG/1.1/DTD/svg11.dtd">
<svg fill="#000000" version="1.1" id="Capa_1" xmlns="http://www.w3.org/2000/svg" xmlns:xlink="http://www.w3.org/1999/xlink" 
	 width="800px" height="800px" viewBox="0 0 53.24 53.24" xml:space="preserve"
	>
<g>
	<g>
		<circle cx="26.62" cy="26.619" r="3.166"/>
		<path d="M26.62,0C11.919,0,0,11.918,0,26.62C0,41.322,11.919,53.24,26.62,53.24c14.7,0,26.62-11.918,26.62-26.621
			C53.24,11.918,41.32,0,26.62,0z M13.303,42.058c-0.293,0.293-0.677,0.438-1.061,0.438c-0.384,0-0.768-0.146-1.061-0.438
			c-8.513-8.513-8.513-22.364,0-30.877c0.586-0.586,1.535-0.586,2.121,0c0.586,0.586,0.586,1.535,0,2.121
			c-3.557,3.558-5.516,8.287-5.516,13.317s1.959,9.76,5.516,13.317C13.889,40.523,13.889,41.472,13.303,42.058z M19.313,33.926
			c0.586,0.586,0.586,1.535,0,2.121c-0.293,0.293-0.677,0.439-1.061,0.439c-0.384,0-0.768-0.146-1.061-0.439
			c-5.198-5.198-5.198-13.657,0-18.855c0.586-0.586,1.535-0.586,2.121,0s0.586,1.535,0,2.121
			C15.285,23.342,15.285,29.896,19.313,33.926z M26.62,32.785c-3.4,0-6.166-2.766-6.166-6.166s2.766-6.166,6.166-6.166
			c3.399,0,6.166,2.766,6.166,6.166S30.02,32.785,26.62,32.785z M34.986,36.486c-0.383,0-0.768-0.146-1.061-0.438
			c-0.586-0.586-0.586-1.535,0-2.121c4.028-4.028,4.028-10.584,0-14.613c-0.586-0.586-0.586-1.535,0-2.121s1.535-0.586,2.121,0
			c5.198,5.198,5.198,13.657,0,18.855C35.755,36.341,35.371,36.486,34.986,36.486z M42.059,42.058
			c-0.293,0.293-0.678,0.438-1.062,0.438s-0.769-0.146-1.062-0.438c-0.586-0.586-0.586-1.534,0-2.12
			c3.558-3.559,5.517-8.287,5.517-13.318c0-5.03-1.959-9.76-5.517-13.317c-0.586-0.586-0.586-1.535,0-2.121s1.535-0.586,2.121,0
			c4.125,4.124,6.396,9.606,6.396,15.438C48.452,32.451,46.182,37.934,42.059,42.058z"/>
	</g>
</g>
</svg>