<svg id="Calque_1" data-name="Calque 1" xmlns="http://www.w3.org/2000/svg" viewBox="0 0 425.2 425.2"><title>flasque-whisky</title><path d="M265.64,158.74V139.41a14.28,14.28,0,0,0-14.41-14.13H241v-9.66a7.08,7.08,0,0,0-7.07-7.08H191.31a7.07,7.07,0,0,0-7.07,7.08v24.77a7.06,7.06,0,0,0,7.07,7.07h3.84v11.28H151.84a9.37,9.37,0,0,0-9.37,9.37V307.29a9.37,9.37,0,0,0,9.37,9.36H273.36a9.36,9.36,0,0,0,9.36-9.36V168.11a9.36,9.36,0,0,0-9.36-9.37ZM251.23,129.8a9.88,9.88,0,0,1,9.88,9.61v19.33H230.05V147.46h3.84a7.07,7.07,0,0,0,7.07-7.07V129.8Zm-14.79-9.66v11.18H188.76V120.14a7.07,7.07,0,0,1,7.07-7.07h33.53A7.07,7.07,0,0,1,236.44,120.14Zm-47.68,22.8v-7.1h47.68v7.1Zm10.92,4.52h25.84v11.28H199.68Zm78.52,25.17V287.49H147V172.63a9.36,9.36,0,0,1,9.36-9.36H268.83A9.36,9.36,0,0,1,278.2,172.63ZM147,302.77V292H278.2v10.75a9.36,9.36,0,0,1-9.37,9.36H156.36A9.36,9.36,0,0,1,147,302.77Z"/><path d="M163.5,177.74h9.35a2.26,2.26,0,0,0,2.26-2.26h0a2.27,2.27,0,0,0-2.26-2.27H159a2.27,2.27,0,0,0-2.26,2.27v29.34a2.26,2.26,0,0,0,2.26,2.26h0a2.27,2.27,0,0,0,2.27-2.26V180A2.26,2.26,0,0,1,163.5,177.74Z"/></svg>