<?xml version="1.0" encoding="utf-8"?>
<!-- Uploaded to: SVG Repo, www.svgrepo.com, Generator: SVG Repo Mixer Tools -->
<svg fill="#000000" width="800px" height="800px" viewBox="0 0 32 32" version="1.1" xmlns="http://www.w3.org/2000/svg">
<title>id-card</title>
<path d="M28 4.75h-24c-1.794 0.002-3.248 1.456-3.25 3.25v16c0.002 1.794 1.456 3.248 3.25 3.25h24c1.794-0.001 3.249-1.456 3.25-3.25v-16c-0.002-1.794-1.456-3.248-3.25-3.25h-0zM4 7.25h24c0.414 0 0.75 0.336 0.75 0.75v0.75h-25.5v-0.75c0.001-0.414 0.336-0.749 0.75-0.75h0zM28 24.75h-24c-0.414-0-0.75-0.336-0.75-0.75v-12.75h25.5v12.75c-0 0.414-0.336 0.75-0.75 0.75v0zM9.645 18.127c1.731-0 3.134-1.403 3.134-3.134s-1.403-3.134-3.134-3.134-3.134 1.403-3.134 3.134c0 0 0 0 0 0.001v-0c0.002 1.73 1.404 3.132 3.135 3.134h0zM9.645 14.358c0.351 0 0.635 0.284 0.635 0.635s-0.284 0.635-0.635 0.635c-0.351 0-0.635-0.284-0.635-0.635v0c0.001-0.35 0.284-0.634 0.635-0.635h0zM9.645 18.311c-2.388 0.010-4.384 1.677-4.898 3.91l-0.007 0.034c-0.018 0.080-0.029 0.173-0.029 0.268 0 0.69 0.559 1.25 1.25 1.25 0.595 0 1.093-0.416 1.219-0.974l0.002-0.008c0.258-1.14 1.262-1.979 2.462-1.979s2.204 0.838 2.459 1.962l0.003 0.017c0.129 0.564 0.626 0.978 1.22 0.978 0.69 0 1.25-0.559 1.25-1.25 0-0.093-0.010-0.184-0.030-0.272l0.002 0.008c-0.521-2.267-2.516-3.933-4.902-3.943h-0.001zM26 12.75h-8c-0.69 0-1.25 0.56-1.25 1.25s0.56 1.25 1.25 1.25v0h8c0.69 0 1.25-0.56 1.25-1.25s-0.56-1.25-1.25-1.25v0zM26 16.75h-8c-0.69 0-1.25 0.56-1.25 1.25s0.56 1.25 1.25 1.25v0h8c0.69 0 1.25-0.56 1.25-1.25s-0.56-1.25-1.25-1.25v0zM26 20.75h-8c-0.69 0-1.25 0.56-1.25 1.25s0.56 1.25 1.25 1.25v0h8c0.69 0 1.25-0.56 1.25-1.25s-0.56-1.25-1.25-1.25v0z"></path>
</svg>