<?xml version="1.0" encoding="iso-8859-1"?>
<!-- Uploaded to: SVG Repo, www.svgrepo.com, Generator: SVG Repo Mixer Tools -->
<!DOCTYPE svg PUBLIC "-//W3C//DTD SVG 1.1//EN" "http://www.w3.org/Graphics/SVG/1.1/DTD/svg11.dtd">
<svg fill="#000000" height="800px" width="800px" version="1.1" id="Capa_1" xmlns="http://www.w3.org/2000/svg" xmlns:xlink="http://www.w3.org/1999/xlink" 
	 viewBox="0 0 380 380" xml:space="preserve">
<g>
	<path d="M292.443,138.07c5.617-9.728,2.285-22.167-7.443-27.786c-9.729-5.616-22.17-2.282-27.785,7.446
		c-4.17,7.222-3.398,15.93,1.25,22.24l-51.323,88.892c-2.247,3.891-0.913,8.867,2.977,11.114c1.281,0.74,2.681,1.091,4.061,1.091
		c2.811,0,5.547-1.46,7.054-4.069l51.322-88.891C280.346,148.979,288.275,145.291,292.443,138.07z"/>
	<path d="M235.965,257.686l88.893-51.323c6.311,4.649,15.022,5.42,22.243,1.251c9.726-5.616,13.061-18.054,7.444-27.786
		c-5.617-9.727-18.057-13.059-27.786-7.443c-7.221,4.17-10.907,12.098-10.037,19.886l-88.893,51.323
		c-3.891,2.247-5.225,7.223-2.978,11.114c1.507,2.61,4.241,4.069,7.054,4.069C233.285,258.777,234.685,258.426,235.965,257.686z"/>
	<path d="M359.657,254.489c-8.337,0.001-15.493,5.023-18.634,12.203l-102.645,0.001c-4.494,0-8.136,3.643-8.136,8.136
		s3.642,8.136,8.136,8.136l102.643-0.001c3.141,7.183,10.299,12.206,18.638,12.206c11.231,0.001,20.339-9.105,20.341-20.34
		C380,263.597,370.891,254.49,359.657,254.489z"/>
	<path d="M141.62,266.693l-102.644,0.001c-3.141-7.181-10.299-12.204-18.637-12.204C9.107,254.49,0,263.596,0,274.83
		c-0.001,11.235,9.107,20.34,20.341,20.341c8.337,0,15.495-5.023,18.636-12.205l102.644-0.001c4.493,0,8.136-3.643,8.136-8.136
		S146.113,266.693,141.62,266.693z"/>
	<path d="M152.168,243.594l-88.893-51.322c0.871-7.79-2.816-15.718-10.037-19.888c-9.728-5.616-22.166-2.284-27.784,7.445
		c-5.618,9.73-2.281,22.167,7.443,27.785c7.222,4.169,15.933,3.398,22.242-1.251l88.892,51.322c1.283,0.74,2.682,1.091,4.062,1.091
		c2.811,0,5.547-1.459,7.054-4.069C157.394,250.817,156.06,245.841,152.168,243.594z"/>
	<path d="M121.531,139.972c4.65-6.31,5.422-15.02,1.252-22.242c-5.615-9.729-18.054-13.062-27.784-7.446
		c-9.729,5.618-13.061,18.057-7.444,27.786c4.169,7.221,12.096,10.908,19.886,10.037l51.324,88.892
		c1.507,2.61,4.241,4.069,7.054,4.069c1.38,0,2.779-0.352,4.061-1.091c3.891-2.247,5.225-7.223,2.977-11.114L121.531,139.972z"/>
	<path d="M210.34,105.17c0-11.234-9.107-20.341-20.341-20.341c-11.233,0-20.341,9.107-20.341,20.341
		c0,8.338,5.023,15.496,12.205,18.636V226.45c0,4.493,3.643,8.136,8.136,8.136c4.493,0,8.136-3.643,8.136-8.136V123.806
		C205.316,120.666,210.34,113.509,210.34,105.17z"/>
</g>
</svg>