<?xml version="1.0" encoding="utf-8"?>
<!-- Uploaded to: SVG Repo, www.svgrepo.com, Generator: SVG Repo Mixer Tools -->
<svg fill="#000000" width="800px" height="800px" viewBox="0 0 32 32" version="1.1" xmlns="http://www.w3.org/2000/svg">
<title>rune-stone</title>
<path d="M12.291 23.641l-0.069 0.035-6.344-12.352 0.055-0.028 2.923-10.214-7.219 7.337 4.995 19.652 13.634 3.24 3.699-3.41zM6.467 11.328l6.088 11.853 11.841 4.321 0.020-0.018 6.962-13.091-4.556-8.472-17.299-5.275-3.057 10.682zM14.479 15.828c0.303-0.525 1.158-0.599 1.91-0.165s1.115 1.212 0.812 1.737c-0.303 0.525-1.159 0.599-1.91 0.165s-1.115-1.212-0.812-1.737zM25.391 15.686c0.417-2.020 0.394-4.024-0.552-5.992 2.415 1.077 3.337 4.172 0.552 5.992zM24.392 14.806v0c-1.756-4.243-5.786-8.297-10.333-7.219-3.932 0.932-0.324 5.017 4.107 6.096 4.893 1.192 10.53 5.196 6.8 9.14-3.442 3.64-9.93 0.127-9.404-4.226 1.114 2.037 5.102 5.341 7.531 2.71 3.404-3.687-4.85-5.837-7.63-7.044-2.861-1.242-8.667-5.367-5.059-8.305 5.354-4.361 15.084 1.87 13.988 8.847zM15.96 11.939c-3.603-2.646-1.899-4.070 1.592-3.428-1.582 0.71-1.89 1.944-1.592 3.428z"></path>
</svg>