<?xml version="1.0" encoding="UTF-8"?>
<svg xmlns="http://www.w3.org/2000/svg" viewBox="0 0 512 512" width="512" height="512"><g id="Out_line" data-name="Out line"><path d="M488,232H467.31006A98.50117,98.50117,0,0,0,454.0752,81.87744a98.62907,98.62907,0,0,0-24.05762-24.04407A98.4613,98.4613,0,0,0,279.833,44.853L204,120.686l-2.34277-2.34278a24.95337,24.95337,0,0,0-42.59351,16.70886,24.93,24.93,0,0,0-24,24,24.96515,24.96515,0,0,0-16.72095,42.60462L120.686,204l-75.8335,75.8335A98.46123,98.46123,0,0,0,57.83936,430.02173a98.66668,98.66668,0,0,0,24.06079,24.08594A98.505,98.505,0,0,0,232.167,467.147l52.75928-52.7594a24.95406,24.95406,0,0,0,34.853-14.7998,24.95626,24.95626,0,0,0,33.157-22.63989,24.93,24.93,0,0,0,24-24,24.96515,24.96515,0,0,0,16.721-42.60462l-1.82666-1.82666A128.182,128.182,0,0,1,472.56836,280H488a8.00008,8.00008,0,0,0,8-8V240A8.00008,8.00008,0,0,0,488,232Zm-8-69.49023A81.97217,81.97217,0,0,1,455.833,220.853L444.15308,232.533a144.15021,144.15021,0,0,0-31.656,6.28406l30.65039-30.65052a98.34233,98.34233,0,0,0,27.94165-82.9414A82.42872,82.42872,0,0,1,480,162.50977Zm-24-24A81.97217,81.97217,0,0,1,431.833,196.853L356,272.686,343.314,260l75.8335-75.8335A97.86791,97.86791,0,0,0,448,114.50977a98.94468,98.94468,0,0,0-.89014-13.22193A82.43207,82.43207,0,0,1,456,138.50977ZM291.14746,56.1665A82.50949,82.50949,0,1,1,407.833,172.853L332,248.686,319.314,236l77.77491-77.7749a64.56873,64.56873,0,0,0-91.31446-91.31348L228,144.686,215.314,132ZM239.314,156l77.77491-77.7749a48.51016,48.51016,0,0,1,61.106-6.15845C377.27441,72.0271,376.35352,72,375.43164,72a64.14655,64.14655,0,0,0-45.65723,18.91162L252,168.686Zm101.77491-53.7749a48.59011,48.59011,0,0,1,54.49536-9.853c.553,1.20435,1.06665,2.42993,1.52173,3.68457a64.10143,64.10143,0,0,0-43.33155,18.855L276,192.686,263.314,180Zm24,24A48.24786,48.24786,0,0,1,399.43164,112c.18457,0,.36963.00757.5542.00977.0022.18676.01416.37121.01416.55859a48.24911,48.24911,0,0,1-14.22559,34.34326L308,224.686,287.314,204ZM32,349.49023A81.97217,81.97217,0,0,1,56.167,291.147L132,215.314,144.686,228,66.91113,305.7749a64.56873,64.56873,0,0,0,91.31446,91.31348L212,343.314,224.686,356l-51.8335,51.8335A82.50949,82.50949,0,0,1,32,349.49023Zm169.62109-18.42529-54.71,54.71A48.24786,48.24786,0,0,1,112.56836,400c-.18726,0-.37183-.012-.55859-.01416-.0022-.18481-.00977-.36963-.00977-.5542a48.24911,48.24911,0,0,1,14.22559-34.34326L204,287.314l9.86011,9.86011a24.98263,24.98263,0,0,0-12.239,33.89087Zm-86.71,22.71a64.09968,64.09968,0,0,0-18.85449,43.33093c-1.25488-.455-2.48071-.96875-3.6853-1.52185a48.59225,48.59225,0,0,1,9.85425-54.4956L180,263.314,192.686,276Zm-24-24A64.14493,64.14493,0,0,0,72,375.43164c0,.92188.0271,1.8429.06665,2.76306a48.51,48.51,0,0,1,6.15894-61.10632L156,239.314,168.686,252Zm10.34693,117.33081A98.97514,98.97514,0,0,0,114.50977,448,97.86415,97.86415,0,0,0,184.167,419.147L236,367.314,248.686,380l-51.8335,51.8335a82.49,82.49,0,0,1-95.59448,15.27221Zm119.59448,8.72779a82.50742,82.50742,0,0,1-95.63574,15.25708A98.38193,98.38193,0,0,0,208.167,443.147L260,391.314,272.686,404Zm81.49023-57.49024a8.9696,8.9696,0,0,1-12.68554,0l-72-72a8.97038,8.97038,0,1,1,12.68554-12.68652l72,72A8.98022,8.98022,0,0,1,302.34277,398.34326Zm32-16a8.9696,8.9696,0,0,1-12.68554,0l-8-8-72-72-112-112a8.97038,8.97038,0,1,1,12.68554-12.68652l192,192A8.98022,8.98022,0,0,1,334.34277,382.34326Zm24-24a8.9696,8.9696,0,0,1-12.68554,0l-192-192a8.97038,8.97038,0,1,1,12.68554-12.68652l192,192A8.98022,8.98022,0,0,1,358.34277,358.34326Zm24-24a8.9696,8.9696,0,0,1-12.68554,0l-192-192a8.97038,8.97038,0,1,1,12.68554-12.68652l192,192A8.98022,8.98022,0,0,1,382.34277,334.34326ZM480,264h-7.43164a144.14028,144.14028,0,0,0-92.10742,33.147l-13.127-13.12683A127.68208,127.68208,0,0,1,456.56836,248H480Z"/></g></svg>