<?xml version="1.0" encoding="UTF-8" standalone="no"?>
<!-- Created with Inkscape (http://www.inkscape.org/) -->
<svg xmlns:dc="http://purl.org/dc/elements/1.1/" xmlns:cc="http://creativecommons.org/ns#" xmlns:rdf="http://www.w3.org/1999/02/22-rdf-syntax-ns#" xmlns:svg="http://www.w3.org/2000/svg" xmlns="http://www.w3.org/2000/svg" xmlns:sodipodi="http://sodipodi.sourceforge.net/DTD/sodipodi-0.dtd" xmlns:inkscape="http://www.inkscape.org/namespaces/inkscape" width="200" height="220" id="svg2" version="1.1" inkscape:version="0.48.1 r9760" sodipodi:docname="Nouveau document 1">
  <defs id="defs4"/>
  <sodipodi:namedview id="base" pagecolor="#ffffff" bordercolor="#666666" borderopacity="1.0" inkscape:pageopacity="0.0" inkscape:pageshadow="2" inkscape:zoom="1.8" inkscape:cx="100" inkscape:cy="110" inkscape:document-units="px" inkscape:current-layer="layer2" showgrid="false" showguides="true" inkscape:guide-bbox="true" inkscape:window-width="1047" inkscape:window-height="614" inkscape:window-x="0" inkscape:window-y="0" inkscape:window-maximized="0"/>
  <metadata id="metadata7">
    <rdf:RDF>
      <cc:Work rdf:about="">
        <dc:format>image/svg+xml</dc:format>
        <dc:type rdf:resource="http://purl.org/dc/dcmitype/StillImage"/>
        <dc:title/>
      </cc:Work>
    </rdf:RDF>
  </metadata>
  <g inkscape:label="Calque 1" inkscape:groupmode="layer" id="layer1" transform="translate(0,-832.36218)"/>
  <g inkscape:groupmode="layer" id="layer2" inkscape:label="Calque 3" transform="translate(0,-832.36218)">
    <path style="fill:#ffffff;stroke:#000000;stroke-width:7.49090719;stroke-linecap:round;stroke-linejoin:round;stroke-miterlimit:4;stroke-opacity:1;stroke-dasharray:none;stroke-dashoffset:0" d="m 170.13895,1046.3221 c 4.90989,-6.2668 9.92648,-13.2183 15.00903,-19.9132 3.40018,-6.961 17.90298,-16.5975 4.84567,-20.4939 -7.69997,-3.2245 -12.90479,-11.24642 -17.53114,-18.39026 -9.88104,-24.06939 -10.64633,-62.6112 4.1621,-83.26592 3.60508,-6.69065 11.11734,-10.51564 17.28857,-14.05593 6.82927,-3.08072 -6.60877,-11.56119 -7.77291,-16.50114 -4.6713,-6.49881 -9.32959,-12.25062 -14.38918,-18.7831 -5.81618,-5.77387 -13.4651,6.10553 -21.65916,5.78958 -9.54681,1.67465 -18.69434,-3.19851 -24.14032,-12.04396 -4.1139,-3.05051 -1.3424,-13.05983 -7.81633,-10.99599 -12.2725,0.16806 -24.574786,-0.43186 -36.822616,0.44819 -4.37386,5.41624 -6.7101,17.04194 -15.16464,19.29538 -8.64873,5.76267 -20.96133,4.35523 -29.28742,-1.8338 -3.32422,-4.63175 -6.00191,-3.23522 -8.5125,0.0219 -8.53378,12.17282 -13.65067,20.21641 -23.4468704,33.74642 7.5147504,3.043 15.8029004,6.87869 20.2020504,15.15276 15.568127,24.44366 14.496952,68.27138 -1.00401,90.52081 -5.01708,7.49846 -13.58708,10.00916 -19.2378204,15.88726 6.1870104,8.3846 12.0983104,16.9305 18.5439104,25.0007 4.35305,7.087 10.20118,15.8778 15.76554,4.4203 6.62425,-7.2262 15.86498,-11.0739 25.03176,-11.4777 9.18664,-0.5932 18.64332,2.5669 25.5592,9.4765 3.3984,10.8748 17.457216,12.5604 21.134366,0.8615 6.49998,-7.0147 15.40025,-10.4644 24.31246,-10.274 9.5425,0.056 19.35039,3.604 26.55139,10.9062 2.75781,1.3253 5.20886,10.9581 8.37891,6.5014 z" id="path3823" inkscape:connector-curvature="0" sodipodi:nodetypes="cccccccccccccccccccccccccccc"/>
  </g>
</svg>