<?xml version="1.0" encoding="iso-8859-1"?>
<!-- Uploaded to: SVG Repo, www.svgrepo.com, Generator: SVG Repo Mixer Tools -->
<svg fill="#000000" height="800px" width="800px" version="1.1" id="Layer_1" xmlns="http://www.w3.org/2000/svg" xmlns:xlink="http://www.w3.org/1999/xlink" 
	 viewBox="0 0 512 512" xml:space="preserve">
<g>
	<g>
		<path d="M476.474,238.34c-24.733-42.83-89.29-100.964-138.046-106.229c1.017-5.251,1.534-10.626,1.534-16.069
			c0-33.325-19.512-62.177-47.707-75.735l11.938-10.338c7.125-6.17,7.898-16.948,1.728-24.074
			c-6.172-7.126-16.948-7.901-24.074-1.728l-25.849,22.387L230.146,4.167c-7.127-6.171-17.904-5.396-24.073,1.728
			c-6.171,7.125-5.396,17.903,1.729,24.074l11.938,10.338c-28.198,13.558-47.709,42.409-47.709,75.736
			c0,5.445,0.518,10.824,1.535,16.077c-48.756,5.269-113.31,63.384-138.049,106.224C5.143,290.966,23.009,341.917,73.308,370.957
			c31.49,18.182,67.637,22.55,98.469,3.906c21.562,23.282,51.943,36.771,84.219,36.771s62.657-13.488,84.219-36.771
			c30.901,18.686,67.067,14.223,98.469-3.907C488.703,342.078,507.008,291.24,476.474,238.34z M255.996,66.197
			c27.477,0,49.833,22.361,49.833,49.845c0,5.154-0.781,10.202-2.298,15.014c-29.118-13.271-64.066-14.124-95.071,0
			c-1.518-4.812-2.298-9.861-2.298-15.014C206.162,88.558,228.517,66.197,255.996,66.197z M227.65,160.01
			c18.315-6.914,38.373-6.921,56.695,0.001c-19.682,37.457-9.29,100.984,4.948,141.628h-66.588
			C236.785,261.447,247.392,197.552,227.65,160.01z M163.16,338.799c-0.001,0-0.002,0.001-0.002,0.001
			c-25.683,23.992-56.624,11.925-72.785,2.596c-34.241-19.771-46.043-50.047-25.296-85.987
			c26.185-45.347,102.221-103.646,126.436-86.858C218.143,187.195,199.912,304.484,163.16,338.799z M197.042,351.91
			c3.856-5.067,7.397-10.611,10.503-16.137h96.907c3.277,5.828,6.777,11.254,10.496,16.138
			C283.077,386.026,228.909,386.019,197.042,351.91z M421.617,341.397c-16.158,9.329-47.096,21.398-72.787-2.598
			c-36.404-33.994-55.296-151.281-28.38-170.227c23.297-16.037,99.022,39.317,126.461,86.835
			C467.585,291.216,456.008,321.54,421.617,341.397z"/>
	</g>
</g>
<g>
	<g>
		<path d="M255.996,435.783c-9.425,0-17.067,7.641-17.067,17.067v42.084c0,9.425,7.641,17.067,17.067,17.067
			c9.425,0,17.067-7.641,17.067-17.067V452.85C273.062,443.424,265.421,435.783,255.996,435.783z"/>
	</g>
</g>
<g>
	<g>
		<path d="M173.424,415.551c-8.356-4.357-18.665-1.115-23.023,7.243l-19.456,37.317c-4.358,8.358-1.114,18.666,7.243,23.023
			c8.36,4.359,18.667,1.11,23.023-7.243l19.456-37.317C185.025,430.217,181.781,419.909,173.424,415.551z"/>
	</g>
</g>
<g>
	<g>
		<path d="M381.046,460.111l-19.456-37.317c-4.357-8.357-14.665-11.602-23.023-7.243c-8.358,4.358-11.601,14.666-7.243,23.023
			l19.456,37.317c4.358,8.359,14.667,11.6,23.023,7.243C382.161,478.776,385.404,468.468,381.046,460.111z"/>
	</g>
</g>
</svg>