<?xml version="1.0" ?><svg viewBox="0 0 512 512" xmlns="http://www.w3.org/2000/svg"><g id="Pot"><path d="M133.9053,191.8373l244.5254.0049a10,10,0,0,0,7.5224-16.5884,177.2761,177.2761,0,0,0-57.73-43.8462,167.5944,167.5944,0,0,0-46.9585-14.3369,25.4059,25.4059,0,0,0-23.7037-25.4063,27.7194,27.7194,0,0,0-3.1445,0,25.4079,25.4079,0,0,0-23.7087,25.4613,167.6118,167.6118,0,0,0-46.595,14.28,177.28,177.28,0,0,0-57.7295,43.8423,10,10,0,0,0,7.5225,16.5889Z"/><path d="M422.1807,207.3739H389.2422c-.0982,0-.1931.0118-.2905.0146-.0975-.0028-.1924-.0146-.2906-.0146H89.8193a27.1362,27.1362,0,0,0-24.1064,39.584,10,10,0,0,0,17.7637-9.1914,7.0251,7.0251,0,0,1-.7871-3.2632,7.1375,7.1375,0,0,1,7.13-7.1294h23.52V353.3783A67.0777,67.0777,0,0,0,180.3408,420.38H331.6592a67.0777,67.0777,0,0,0,67.0019-67.0019V227.3739h23.52a7.1375,7.1375,0,0,1,7.13,7.1294,7.0231,7.0231,0,0,1-.7871,3.2627,10,10,0,1,0,17.7637,9.1914,27.1358,27.1358,0,0,0-24.1064-39.5835Zm-52.02,146.0044A38.5453,38.5453,0,0,1,331.6592,391.88a8.5,8.5,0,0,1,0-17,21.526,21.526,0,0,0,21.5019-21.5019V317.8368a8.5,8.5,0,0,1,17,0Z"/></g></svg>