<?xml version="1.0" encoding="UTF-8"?>
<svg xmlns="http://www.w3.org/2000/svg" xmlns:xlink="http://www.w3.org/1999/xlink" width="375pt" height="374.999991pt" viewBox="0 0 375 374.999991" version="1.2">
<defs>
<clipPath id="clip1">
  <path d="M 12.292969 21.015625 L 367 21.015625 L 367 307.515625 L 12.292969 307.515625 Z M 12.292969 21.015625 "/>
</clipPath>
</defs>
<g id="surface1">
<g clip-path="url(#clip1)" clip-rule="nonzero">
<path style=" stroke:none;fill-rule:nonzero;fill:rgb(6.269836%,5.879211%,5.099487%);fill-opacity:1;" d="M 104.605469 272.257812 C 104.605469 277.273438 100.535156 281.351562 95.53125 281.351562 L 45.667969 281.351562 C 40.664062 281.351562 36.597656 277.273438 36.597656 272.257812 L 36.597656 173.699219 C 36.597656 168.6875 40.664062 164.605469 45.667969 164.605469 L 95.53125 164.605469 C 100.535156 164.605469 104.605469 168.6875 104.605469 173.699219 Z M 95.53125 158.15625 L 45.667969 158.15625 C 37.117188 158.15625 30.160156 165.128906 30.160156 173.699219 L 30.160156 272.257812 C 30.160156 280.839844 37.117188 287.8125 45.667969 287.8125 L 95.53125 287.8125 C 104.09375 287.8125 111.050781 280.839844 111.050781 272.257812 L 111.050781 173.699219 C 111.050781 165.128906 104.09375 158.15625 95.53125 158.15625 Z M 169.074219 173.699219 C 169.074219 168.6875 173.140625 164.605469 178.144531 164.605469 L 228.019531 164.605469 C 233.011719 164.605469 237.082031 168.6875 237.082031 173.699219 L 237.082031 272.257812 C 237.082031 277.273438 233.011719 281.351562 228.019531 281.351562 L 178.144531 281.351562 C 173.140625 281.351562 169.074219 277.273438 169.074219 272.257812 Z M 162.636719 173.699219 L 162.636719 272.257812 C 162.636719 280.839844 169.59375 287.8125 178.144531 287.8125 L 228.019531 287.8125 C 236.5625 287.8125 243.527344 280.839844 243.527344 272.257812 L 243.527344 173.699219 C 243.527344 165.128906 236.5625 158.15625 228.019531 158.15625 L 178.144531 158.15625 C 169.59375 158.15625 162.636719 165.128906 162.636719 173.699219 Z M 222.9375 121.65625 L 222.9375 118.601562 C 279.429688 113.402344 330.265625 79.5 356.878906 29.277344 L 359.378906 30.550781 C 332.308594 81.753906 280.527344 116.324219 222.9375 121.65625 Z M 198.203125 138.503906 L 198.203125 114.742188 L 216.492188 114.742188 L 216.492188 138.503906 Z M 254.945312 170.140625 L 254.945312 275.816406 C 254.945312 289.703125 243.671875 301.015625 229.816406 301.015625 L 176.347656 301.015625 C 162.492188 301.015625 151.21875 289.703125 151.21875 275.816406 L 151.21875 170.140625 C 151.21875 156.257812 162.492188 144.953125 176.347656 144.953125 L 229.816406 144.953125 C 243.671875 144.953125 254.945312 156.257812 254.945312 170.140625 Z M 122.46875 275.816406 C 122.46875 289.703125 111.195312 301.015625 97.332031 301.015625 L 43.871094 301.015625 C 30.015625 301.015625 18.730469 289.703125 18.730469 275.816406 L 18.730469 170.140625 C 18.730469 156.257812 30.015625 144.953125 43.871094 144.953125 L 97.332031 144.953125 C 111.195312 144.953125 122.46875 156.257812 122.46875 170.140625 Z M 144.769531 174.644531 L 144.769531 185.433594 L 128.90625 185.433594 L 128.90625 174.605469 C 128.964844 174.605469 129.023438 174.644531 129.078125 174.644531 Z M 128.90625 260.535156 L 144.769531 260.535156 L 144.769531 271.332031 L 128.90625 271.332031 Z M 144.769531 254.082031 L 128.90625 254.082031 L 128.90625 191.886719 L 144.769531 191.886719 Z M 55.394531 30.5625 L 57.953125 29.269531 C 84.488281 79.488281 135.285156 113.402344 191.769531 118.601562 L 191.769531 121.65625 C 134.21875 116.324219 82.46875 81.765625 55.394531 30.5625 Z M 365.191406 26.269531 L 356.945312 22.066406 C 356.175781 21.679688 355.300781 21.621094 354.480469 21.882812 C 353.675781 22.144531 353 22.722656 352.617188 23.492188 C 327.535156 73.132812 278.066406 106.769531 222.9375 112.0625 L 222.9375 111.511719 C 222.9375 109.730469 221.496094 108.292969 219.714844 108.292969 L 194.992188 108.292969 C 193.210938 108.292969 191.769531 109.730469 191.769531 111.511719 L 191.769531 112.0625 C 136.652344 106.769531 87.230469 73.132812 62.226562 23.492188 C 61.417969 21.902344 59.464844 21.257812 57.894531 22.066406 L 49.59375 26.269531 C 48.824219 26.644531 48.246094 27.320312 47.976562 28.140625 C 47.707031 28.949219 47.777344 29.839844 48.160156 30.601562 C 75.886719 85.527344 130.726562 122.601562 191.769531 128.058594 L 191.769531 138.503906 L 176.347656 138.503906 C 159.605469 138.503906 145.992188 151.664062 144.964844 168.183594 L 129.078125 168.183594 C 128.953125 168.183594 128.847656 168.242188 128.722656 168.261719 C 127.722656 151.703125 114.101562 138.503906 97.332031 138.503906 L 43.871094 138.503906 C 26.457031 138.503906 12.292969 152.699219 12.292969 170.140625 L 12.292969 275.816406 C 12.292969 293.269531 26.457031 307.464844 43.871094 307.464844 L 97.332031 307.464844 C 114.070312 307.464844 127.675781 294.304688 128.714844 277.785156 L 144.972656 277.785156 C 146.003906 294.304688 159.605469 307.464844 176.347656 307.464844 L 229.816406 307.464844 C 247.222656 307.464844 261.382812 293.269531 261.382812 275.816406 L 261.382812 170.140625 C 261.382812 152.699219 247.222656 138.503906 229.816406 138.503906 L 222.9375 138.503906 L 222.9375 128.058594 C 284.019531 122.613281 338.878906 85.527344 366.605469 30.601562 C 367.402344 29.019531 366.777344 27.070312 365.191406 26.269531 "/>
</g>
</g>
</svg>