<?xml version="1.0" encoding="iso-8859-1"?>
<!-- Uploaded to: SVG Repo, www.svgrepo.com, Generator: SVG Repo Mixer Tools -->
<svg fill="#000000" height="800px" width="800px" version="1.1" id="Layer_1" xmlns="http://www.w3.org/2000/svg" xmlns:xlink="http://www.w3.org/1999/xlink" 
	 viewBox="0 0 511.999 511.999" xml:space="preserve">
<g>
	<g>
		<path d="M256,64.03c-63.428,0-115.03,51.603-115.03,115.031c0,9.751,1.224,19.221,3.518,28.269l139.78-139.78
			C275.222,65.255,265.751,64.03,256,64.03z"/>
	</g>
</g>
<g>
	<g>
		<path d="M350.124,113.014L244.787,218.353l-21.508-21.508L329.488,90.636c-4.644-3.866-9.597-7.37-14.813-10.477L157.098,237.736
			c20.078,33.715,56.893,56.355,98.901,56.355c63.428,0,115.03-51.603,115.03-115.03
			C371.029,154.502,363.287,131.718,350.124,113.014z"/>
	</g>
</g>
<g>
	<g>
		<path d="M435.061,179.061C435.061,80.327,354.735,0,256,0S76.938,80.327,76.938,179.061c0,84.459,58.781,155.439,137.58,174.2
			l-1.205,18.285c14.199,1.691,28.529,2.547,42.685,2.547c14.156,0,28.487-0.856,42.685-2.547l-1.204-18.285
			C376.28,334.5,435.061,263.52,435.061,179.061z M256,324.509c-80.199,0-145.447-65.248-145.447-145.447
			C110.553,98.861,175.8,33.614,256,33.614s145.447,65.248,145.447,145.448S336.199,324.509,256,324.509z"/>
	</g>
</g>
<g>
	<g>
		<path d="M304.527,460.171l-3.839-58.245c-14.87,1.709-29.865,2.584-44.688,2.584c-14.824,0-29.818-0.875-44.688-2.584
			l-3.839,58.245c-0.881,13.372,3.866,26.653,13.027,36.435c9.159,9.782,22.098,15.393,35.5,15.393
			c13.402,0,26.34-5.611,35.5-15.393S305.408,473.544,304.527,460.171z"/>
	</g>
</g>
</svg>