<?xml version="1.0" encoding="iso-8859-1"?>
<!-- Uploaded to: SVG Repo, www.svgrepo.com, Generator: SVG Repo Mixer Tools -->
<!DOCTYPE svg PUBLIC "-//W3C//DTD SVG 1.1//EN" "http://www.w3.org/Graphics/SVG/1.1/DTD/svg11.dtd">
<svg fill="#000000" version="1.1" id="Capa_1" xmlns="http://www.w3.org/2000/svg" xmlns:xlink="http://www.w3.org/1999/xlink" 
	 width="800px" height="800px" viewBox="0 0 191.548 191.548"
	 xml:space="preserve">
<g>
	<path d="M179.157,131.912c-3.861-3.605,19.078-19.288,10.426-27.94c-7.003-7.003-15.425-3.648-23.388,0.902
		c-1.303-4.4-3.071-8.295-5.395-11.88c-1.47-3.376-3.358-6.503-5.405-9.005c-0.562-0.687-1.762-0.793-2.564-0.352
		c-0.701-0.575-1.682-0.814-2.577-0.62c12.395-14.214,8.575-38.793-8.997-46.535c-17.165-7.563-34.888,5.907-37.905,22.87
		c-1.625-5.651-4.426-11.02-7.627-14.986c-5.935-7.349-15.74-11.115-25.023-10.712c-20.264,0.879-25.618,19.596-21.678,35.964
		c-0.778,0.229-1.429,0.807-1.652,1.839c-1.233,5.693-1.991,11.171-2.349,16.858c-0.745-0.407-1.47-0.83-2.181-1.266
		c-5.401-4.051-9.736-9.371-12.42-15.669c-0.524-1.23-2.724-0.935-2.92,0.382c-0.071,0.474-0.086,0.969-0.141,1.45
		c-0.318-0.375-0.639-0.736-0.955-1.119c-1.405-1.699-4.474-0.325-4.342,1.799c0.564,9.097,3.228,16.907,7.009,24.777
		c-0.366-0.038-0.732-0.075-1.103-0.103c-1.697-0.398-3.394-0.806-5.092-1.343c-2.48-0.782-4.979,2.274-3.461,4.503
		c1.345,1.975,2.773,3.651,4.282,5.187c2.159,3.313,5.166,5.975,8.718,7.815c-1.038,0.098-2.053,0.248-3.084,0.363
		c-9.831,0.474-19.48,1.967-28.487,6.503c-1.749,0.882-0.523,3.691,1.321,3.133c16.425-4.981,34.677-3.195,51.638-3.399
		c16.748-0.202,33.407-0.54,50.106-0.364c5.017,0.35,10.034,0.76,15.05,1.248c18.649,1.812,47.065,4.717,60.245-11.421
		c0.974,0.75,1.944,1.776,2.912,3.076c-2.396,2.217-5.672,4.028-7.872,6.077c-3.38,3.147-5.281,7.01-5.271,11.625
		c0.014,7.231,10.806,11.262,14.741,16.315c1.033,2.102,0.646,3.303-2.648,2.654c-12.38-10.723-31.746-14.165-49.185-15.729
		c-4.157-0.451-8.362-0.758-12.607-0.916c-1.384-0.084-2.739-0.164-4.054-0.244c-36.811-2.235-73.817-1.142-110.417,3.448
		c-1.49,0.188-1.994,1.797-1.423,2.761c-2.505,1.881-1.971,6.673,1.721,6.179c29.177-3.902,58.42-5.673,87.854-5.388
		c24.922,0.242,49.104-0.527,72.04,10.188c4.566,2.133,19.966,10.993,24.585,5.091C195.583,148.257,184.41,136.817,179.157,131.912z
		 M137.735,41.405c6.839,1.894,11.663,7.567,13.709,14.152c1.346,4.332,1.011,8.377,0.072,12.345
		c-0.848-0.746-1.535-1.653-2.021-2.763c-0.336-0.58-1.008-0.992-1.688-0.968c-4.901,0.167-5.625,0.391-9.935-2.134
		c-1.731-1.015-6.394,2.613-7.232,0.72c-0.617-1.392-2.025-3.772-3.924-3.247c-0.815,0.226-1.595,0.308-2.235,0.863
		c-2.274,1.973-3.426-3.043-4.323-4.783c-0.264-0.512-0.876-0.826-1.438-0.825c-4.292,0.013-6.354,0.396-7.147-2.606
		C117.588,43.732,125.645,38.057,137.735,41.405z M105.24,63.11c1.173-2.408,2.429-4.792,3.79-7.066
		c0.209,0.266,0.509,0.472,0.816,0.597c1.604,0.654,2.874,1.124,4.635,1.251c4.136,0.297,4.713,3.317,6.353,6.702
		c0.347,0.716,1.271,0.992,1.994,0.811c1.667-0.417,1.935-0.576,3.227-1.642c1.082-0.893,1.711,2.16,2.2,2.602
		c2.364,2.13,3.786,1.864,6.586,0.208c2.244-1.327,4.534,2.062,6.923,2.08c1.339,0.01,4.396-1.473,5.281,0.072
		c0.799,1.394,2.042,2.365,3.366,3.2c-0.997,3.142-2.175,6.277-3.015,9.508c-0.296,1.139,0.731,2.183,1.757,2.15
		c-0.066,0.062-0.155,0.082-0.215,0.154c-1.409,1.668-2.798,3.407-4.188,5.142c-0.007-2.121-0.119-4.25-0.373-6.509
		c-0.272-2.426-3.777-4.097-5.108-1.384c-0.394,1.048-0.9,2.013-1.416,2.97c-1.871,2.205-4.115,3.887-6.271,5.862
		c-0.171-0.939-0.365-1.871-0.558-2.802c-0.551-4.395-1.585-8.714-3.124-12.932c-0.359-0.984-1.136-1.428-1.914-1.398
		c-1.169-0.567-2.605-0.507-3.608,0.6c-3.019,3.332-6.112,6.274-9.569,8.83c0.36-3.203,0.25-6.424-0.19-9.774
		c0.002-0.334,0.013-0.66,0.014-0.996c0.001-3.01-3.417-3.99-5.495-2.276c-0.815,0.673-1.609,1.362-2.412,2.046
		c0.192-2.43,0.02-4.95-0.4-7.468C104.693,63.623,105.051,63.496,105.24,63.11z M71.916,39.526
		c7.662-0.411,14.712,3.37,19.867,8.781c7.553,7.93,6.447,17.302,8.068,26.93c-2.591,2.199-5.21,4.352-7.979,6.317
		c-0.123-0.978-0.217-1.957-0.289-2.936c0.014-1.466-0.021-2.941-0.104-4.433c0.04-0.985,0.115-1.973,0.252-2.968
		c0.071-0.523-0.245-0.874-0.626-1.018c-0.411-1.975-2.385-3.477-4.393-2.261c-4.201,2.544-7.267,5.647-10.157,9.192
		c-1.021-2.737-2.206-5.351-3.669-8.085c-1.047-1.958-3.882-1.778-4.973,0c-2.63,4.287-4.979,8.691-7.265,13.147
		c-2.237-3.069-4.444-6.158-6.663-9.24C51.571,58.004,52.834,40.551,71.916,39.526z M151.691,112.782
		c-13.676,4.622-31.697,1.563-45.905,1.372c-11.016-0.149-22.032-0.008-33.045,0.244c-11.039-0.585-22.333-0.828-33.357-0.197
		c-0.142-0.65-0.542-1.263-1.311-1.582c-1.411-0.584-2.693-1.26-3.872-2.018c-2.131-2.281-4.196-4.509-6.087-6.926
		c1.752,0.321,3.472,0.803,5.153,1.476c1.338,0.424,2.436-0.338,2.895-1.412c1.23,0.148,1.982-1.513,0.801-2.366
		c-0.419-0.302-0.855-0.556-1.296-0.794c-0.342-0.666-0.682-1.331-1.01-1.992c1.157,1.131,2.418,2.174,3.88,3.029
		c0.453,0.265,0.817-0.397,0.404-0.69c-5.088-3.617-7.253-9.946-8.054-16.421c4.437,4.182,9.323,7.666,15.261,10.365
		c1.855,0.843,3.968-0.146,4.047-2.322c0.165-4.56,0.638-9.02,1.368-13.468c2.318,3.295,4.635,6.591,7.096,9.791
		c1.17,1.522,3.776,2.078,4.829,0c2.142-4.227,4.399-8.356,6.771-12.432c1.078,2.42,1.911,4.929,2.434,7.552
		c0.702,2.67,3.865,2.561,5.3,0.693c0.707-1.145,1.475-2.229,2.288-3.268c1.582-1.45,3.183-2.88,4.797-4.297
		c0.184-0.162,0.393-0.325,0.592-0.487c0.068,3.557-0.145,7.034-0.445,10.829c-0.117,1.477,0.948,2.509,2.216,2.827
		c0.064,0.18,0.111,0.372,0.197,0.539c0.307,0.596,1.272,0.596,1.578,0c0.109-0.213,0.139-0.451,0.205-0.677
		c0.099-0.04,0.203-0.061,0.297-0.111c5.987-3.256,11.087-7.445,16.235-11.719c-0.205,3.287-0.588,6.533-1.424,9.958
		c-0.727,2.973,2.267,4.958,4.854,3.732c2.112-1.001,4.038-2.12,5.857-3.335c3.163-1.708,5.956-3.812,8.253-6.451
		c1.486,4.731,2.678,9.481,3.588,14.457c0.325,1.779,2.646,2.53,4.088,1.663c3.528-2.122,6.067-4.336,8.205-7.021
		c-0.039,1.782-0.134,3.578-0.344,5.466c-0.252,2.278,3.012,3.432,4.45,1.843c0.453-0.5,2.49-3.445,4.53-5.607
		c1.108-0.756,2.206-1.522,3.273-2.323c0.297-0.023,0.562,0.041,0.774,0.256c3.242,3.293,5.276,7.446,6.762,11.77
		c0.153,2.635-0.39,4.995-1.322,7.295C155.458,111.17,153.505,112.167,151.691,112.782z"/>
</g>
</svg>