<?xml version="1.0" ?>
<!DOCTYPE svg  PUBLIC '-//W3C//DTD SVG 1.1//EN'  'http://www.w3.org/Graphics/SVG/1.1/DTD/svg11.dtd'>
<!-- Uploaded to: SVG Repo, www.svgrepo.com, Generator: SVG Repo Mixer Tools -->
<svg fill="#000000" width="800px" height="800px" viewBox="0 0 512 512" enable-background="new 0 0 512 512" id="Coin" version="1.1" xml:space="preserve" xmlns="http://www.w3.org/2000/svg" xmlns:xlink="http://www.w3.org/1999/xlink">
<g>
<path d="M442.132,295.84l-0.212-0.327c-2.779-4.401-6.768-7.722-11.458-9.573c-0.999-0.41-2.018-0.752-3.05-1.025   c-0.842-2.74-2.171-5.334-3.941-7.656l-0.443-0.519c-4.624-5.911-11.562-9.294-19.086-9.294c-3.669,0-7.212,0.807-10.608,2.438   c-0.347,0.173-0.691,0.347-0.991,0.514l-1.795,0.976c-4.473-4.234-10.371-6.607-16.636-6.607c-4.203,0-8.365,1.105-12.033,3.195   l-71.891,40.886c-4.593,2.585-9.505,4.185-14.63,4.761l-65.793,7.721h-1.831c-0.544,0-1.06-0.074-1.552-0.227   c-1.442-0.442-2.633-1.485-3.228-2.771c-0.117-0.266-0.202-0.498-0.259-0.711l-0.044-0.155c-0.139-0.466-0.209-0.952-0.209-1.444   v-0.164c0-2.959,2.407-5.367,5.366-5.367h55.104c21.211,0,38.468-17.256,38.468-38.468v-0.327c0-7.253-5.9-13.153-13.152-13.153   h-95.628c-14.866,0-29.406,6.023-39.888,16.522l-47.103,47.104l-6.986-10.313c-1.516-2.237-4.454-3.006-6.871-1.798l-25.56,12.781   v126.578l100.408-24.236c2.86-0.69,4.483-3.448,4.049-6.107l160.306-36.428l0.425-0.098l0.65-0.241l100.606-51.927   c6.016-3.098,10.5-8.625,12.304-15.165C446.743,308.66,445.722,301.599,442.132,295.84z M112.192,423.204   c-7.238,0-13.105-5.867-13.105-13.104c0-7.238,5.867-13.105,13.105-13.105s13.105,5.867,13.105,13.105   C125.297,417.337,119.43,423.204,112.192,423.204z M433.368,312.021c-0.928,3.367-3.14,6.096-6.233,7.689l-99.579,51.396   l-157.329,35.752l-53.446-78.896l44.417-44.418c8.251-8.265,19.696-13.005,31.399-13.005h95.628c0.646,0,1.152,0.507,1.152,1.153   v0.327c0,14.595-11.873,26.468-26.468,26.468h-55.104c-9.576,0-17.366,7.791-17.366,17.367v0.164c0,1.63,0.232,3.245,0.689,4.803   c0.215,0.78,0.494,1.555,0.888,2.445c2.064,4.475,5.947,7.867,10.633,9.302c1.625,0.503,3.335,0.759,5.084,0.759h2.532   l66.459-7.799c6.703-0.752,13.145-2.847,19.17-6.238l71.919-40.9c1.865-1.063,3.974-1.625,6.097-1.625   c3.755,0,7.251,1.69,9.593,4.639l0.419,0.477c0.121,0.156,0.233,0.315,0.347,0.479l3.068,4.413l10.779-5.856   c0.188-0.104,0.377-0.197,0.487-0.252c1.685-0.809,3.48-1.219,5.337-1.219c3.857,0,7.409,1.76,9.743,4.828l0.412,0.486   c1.299,1.785,2.097,3.852,2.312,5.993l0.51,5.086l5.103,0.304c1.302,0.078,2.643,0.388,3.957,0.928   c2.382,0.94,4.387,2.617,5.844,4.925l0.156,0.239C433.801,305.188,434.295,308.662,433.368,312.021z"/>
<path d="M253.004,228.143c45.718,0,82.778-37.062,82.778-82.779s-37.061-82.778-82.778-82.778   c-45.717,0-82.779,37.061-82.779,82.778S207.287,228.143,253.004,228.143z M253.004,89.775c30.701,0,55.589,24.888,55.589,55.589   s-24.888,55.589-55.589,55.589s-55.589-24.888-55.589-55.589S222.303,89.775,253.004,89.775z"/>
<path d="M244.308,169.926c-1.16-0.43-2.115-0.976-2.864-1.643c-0.744-0.667-1.319-1.411-1.725-2.236   c-0.406-0.823-0.749-1.659-1.034-2.505c-0.285-0.847-0.554-1.672-0.812-2.474c-0.259-0.801-0.612-1.514-1.05-2.133   c-0.443-0.623-1.023-1.124-1.746-1.508c-0.723-0.383-1.693-0.575-2.912-0.575c-1.693,0-3.027,0.52-3.998,1.559   s-1.456,2.529-1.456,4.47c0,1.266,0.201,2.563,0.607,3.895c0.406,1.335,1.018,2.643,1.83,3.93s1.835,2.508,3.064,3.658   c1.234,1.153,2.664,2.17,4.288,3.049c1.625,0.881,3.46,1.593,5.501,2.136c2.046,0.541,4.298,0.847,6.762,0.912v5.929   c0,0.406,0.063,0.807,0.201,1.203c0.137,0.396,0.327,0.747,0.564,1.05c0.237,0.306,0.522,0.548,0.854,0.73   c0.327,0.179,0.675,0.269,1.039,0.269c0.364,0,0.702-0.09,1.023-0.269c0.316-0.182,0.596-0.425,0.833-0.73   c0.237-0.303,0.427-0.654,0.564-1.05c0.137-0.396,0.205-0.796,0.205-1.203v-5.929c3.244-0.203,6.203-0.767,8.877-1.693   c2.669-0.925,4.958-2.223,6.862-3.895c1.909-1.669,3.381-3.721,4.415-6.147c1.039-2.429,1.556-5.246,1.556-8.452   c0-2.461-0.269-4.629-0.813-6.504c-0.537-1.875-1.292-3.523-2.263-4.945c-0.97-1.424-2.125-2.642-3.471-3.66   c-1.339-1.016-2.816-1.902-4.43-2.659c-1.609-0.757-3.323-1.4-5.138-1.93c-1.814-0.53-3.682-1.021-5.597-1.474v-18.155   c1.599,0.021,2.965,0.298,4.088,0.828c1.129,0.533,2.1,1.181,2.912,1.949c0.812,0.768,1.519,1.598,2.131,2.489   c0.606,0.892,1.208,1.723,1.809,2.49c0.597,0.768,1.229,1.406,1.894,1.915c0.665,0.507,1.472,0.763,2.416,0.763   c0.743,0,1.45-0.138,2.115-0.406c0.664-0.272,1.25-0.662,1.756-1.171c0.512-0.507,0.907-1.134,1.203-1.878   c0.295-0.746,0.438-1.582,0.438-2.508c0-1.559-0.354-2.985-1.065-4.286c-0.707-1.297-1.646-2.466-2.806-3.505   c-1.161-1.039-2.479-1.954-3.956-2.746c-1.477-0.788-2.98-1.456-4.515-1.996c-1.535-0.543-3.039-0.955-4.516-1.237   c-1.477-0.282-2.779-0.446-3.903-0.494v-5.554c0-0.43-0.068-0.841-0.205-1.237c-0.137-0.396-0.327-0.744-0.564-1.05   c-0.237-0.306-0.517-0.548-0.833-0.728c-0.322-0.182-0.659-0.271-1.023-0.271c-0.364,0-0.712,0.09-1.039,0.271   c-0.332,0.18-0.617,0.422-0.854,0.728c-0.237,0.306-0.427,0.654-0.564,1.05c-0.137,0.396-0.201,0.807-0.201,1.237v5.554   c-2.732,0.114-5.348,0.612-7.843,1.493c-2.495,0.881-4.699,2.154-6.604,3.826c-1.909,1.672-3.428,3.737-4.557,6.2   c-1.129,2.461-1.693,5.317-1.693,8.568c0,2.667,0.475,5.053,1.419,7.166c0.95,2.113,2.316,3.969,4.098,5.573   c1.788,1.604,3.961,2.964,6.525,4.082s5.448,1.991,8.655,2.624v20.02C246.956,170.614,245.474,170.356,244.308,169.926z    M254.05,151.734c1.166,0.295,2.39,0.651,3.661,1.068c1.271,0.417,2.432,0.989,3.481,1.711c1.044,0.723,1.903,1.625,2.579,2.708   c0.675,1.084,1.013,2.439,1.013,4.064c0,1.606-0.312,2.977-0.944,4.117c-0.628,1.142-1.451,2.089-2.463,2.846   c-1.014,0.757-2.163,1.332-3.444,1.727c-1.287,0.396-2.58,0.638-3.883,0.728V151.734z M241.444,134.814   c-1.604-1.432-2.405-3.347-2.405-5.741c0-1.037,0.227-2.036,0.681-2.996c0.448-0.96,1.102-1.814,1.946-2.558   c0.85-0.746,1.868-1.35,3.064-1.812c1.198-0.464,2.542-0.718,4.035-0.762v17.105C245.49,137.327,243.048,136.249,241.444,134.814z"/>
</g>
</svg>