<?xml version="1.0" encoding="UTF-8" standalone="no"?>
<!-- Generator: Adobe Illustrator 15.1.0, SVG Export Plug-In . SVG Version: 6.00 Build 0)  -->
<svg xmlns:dc="http://purl.org/dc/elements/1.1/" xmlns:cc="http://creativecommons.org/ns#" xmlns:rdf="http://www.w3.org/1999/02/22-rdf-syntax-ns#" xmlns:svg="http://www.w3.org/2000/svg" xmlns="http://www.w3.org/2000/svg" xmlns:sodipodi="http://sodipodi.sourceforge.net/DTD/sodipodi-0.dtd" xmlns:inkscape="http://www.inkscape.org/namespaces/inkscape" id="Layer_1" enable-background="new 0 0 360 360" xml:space="preserve" viewBox="0 0 704.74579 680.33899" version="1.0" y="0px" x="0px" sodipodi:docname="Lock-picking.svg" inkscape:version="0.92.1 r15371" width="704.74579" height="680.33899"><defs id="defs4526"/><sodipodi:namedview pagecolor="#ffffff" bordercolor="#666666" borderopacity="1" objecttolerance="10" gridtolerance="10" guidetolerance="10" inkscape:pageopacity="0" inkscape:pageshadow="2" inkscape:window-width="1366" inkscape:window-height="706" id="namedview4524" showgrid="false" inkscape:snap-global="false" inkscape:zoom="0.65555556" inkscape:cx="573.58758" inkscape:cy="393.55933" inkscape:window-x="-8" inkscape:window-y="-8" inkscape:window-maximized="1" inkscape:current-layer="g4519" fit-margin-top="0" fit-margin-left="0" fit-margin-right="0" fit-margin-bottom="0"/>
<g id="g4519" transform="translate(57.966106,111.35593)">
	
	<path d="m 215.10644,98.535763 c -1.312,-23.149 -10.313,-70.171627 -26.267,-84.294627 -15.27,-13.51000012 -35.74,-20.9530001 -57.65,-20.9530001 -21.907,0 -42.379999,7.44299998 -57.647999,20.9570001 -15.953,14.123 -24.954,61.145627 -26.267,84.294627 -9.867,3.979997 -16.883,13.609997 -16.883,24.819997 v 158.62 c 0,14.73 12.096,26.77 26.88,26.77 H 205.11144 c 14.785,0 26.88,-12.044 26.88,-26.768 v -158.62 c 0,-11.21 -7.02,-20.84 -16.88,-24.819997 z m -64.53,161.059997 c 0.807,4.731 -2.477,8.605 -7.297,8.605 h -24.177 c -4.823,0 -8.106,-3.874 -7.299,-8.605 l 6.362,-37.277 c -6.568,-4.253 -10.92,-11.609 -10.92,-19.993 0,-13.168 10.721,-23.843 23.944,-23.843 13.224,0 23.943,10.675 23.943,23.843 0,8.384 -4.351,15.74 -10.917,19.993 l 6.38,37.27 z M 62.376441,96.585763 C 64.50713,72.958905 73.122882,41.698725 88.532461,24.282216 100.39553,10.874112 117.52779,8.1561359 131.18444,8.1561359 c 18.247,0 35.196,6.1080001 47.728,17.2010001 12.262,10.854 19.471,53.331627 21.091,71.228627 H 62.373441 Z" id="path4517" inkscape:connector-curvature="0" sodipodi:nodetypes="ccsccsssssscccssccsssccccsssccc"/>
<path style="fill:#000000;fill-opacity:1;stroke:#000000;stroke-width:1px;stroke-linecap:butt;stroke-linejoin:miter;stroke-opacity:1" d="m 286.77913,-57.965936 -6.10156,4.576172 10.67773,15.253906 -10.24219,162.406258 c -4.02996,2.03329 -8.67136,6.10848 -14.16406,13.01757 l -13.72851,343.22071 c 11.22802,34.88641 24.36468,37.31102 39.66015,3.05078 l 12.20313,-344.7461 c -3.97245,-6.2196 -7.94109,-12.44752 -13.01953,-14.98046 l 8.44336,-160.443367 z" id="path5082" inkscape:connector-curvature="0"/><path style="fill:#000000;fill-opacity:1;stroke:#000000;stroke-width:1px;stroke-linecap:butt;stroke-linejoin:miter;stroke-opacity:1" d="m 361.52588,-39.660917 -7.62695,10.677734 21.35547,3.050781 -12.20313,21.3554686 V 139.74534 c -3.92805,2.10426 -8.43369,6.13668 -13.72851,12.79687 l -13.73047,343.22071 c 11.22802,34.88641 24.36664,37.31102 39.66211,3.05078 l 12.20312,-344.7461 c -5.20017,-8.14183 -10.39002,-16.31923 -18.07812,-16.16796 l 4.34961,-142.4765734 9.15234,-27.4570316 z" id="path5084" inkscape:connector-curvature="0"/><path style="fill:#000000;fill-opacity:1;stroke:#000000;stroke-width:1px;stroke-linecap:butt;stroke-linejoin:miter;stroke-opacity:1" d="m 443.89801,-42.711864 -10.67774,13.728516 9.15234,12.203125 -4.57617,9.1523426 -4.57617,4.576172 6.10156,10.679688 v 7.6269534 l -7.62695,10.677734 9.15234,9.152344 -4.41992,104.625009 c -2.81523,2.30092 -5.89578,5.48836 -9.30859,9.78124 l -13.72852,343.22071 c 11.22805,34.88641 24.36466,37.31102 39.66016,3.05078 l 12.20312,-344.74609 c -4.90187,-7.67476 -9.79474,-15.37697 -16.77929,-16.10938 V 33.55962 l -4.57617,-9.152343 3.05078,-4.576172 1.52539,-7.626953 V 4.5771976 l -4.57617,-7.628906 4.57617,-7.6269526 v -9.152344 l -4.57617,-7.626953 4.57617,-7.626953 z" id="path5086" inkscape:connector-curvature="0"/></g>
<metadata id="metadata4521"><rdf:RDF><cc:Work><dc:format>image/svg+xml</dc:format><dc:type rdf:resource="http://purl.org/dc/dcmitype/StillImage"/><cc:license rdf:resource="http://creativecommons.org/publicdomain/zero/1.0/"/><dc:publisher><cc:Agent rdf:about="http://openclipart.org/"><dc:title>Openclipart</dc:title></cc:Agent></dc:publisher><dc:title/></cc:Work><cc:License rdf:about="http://creativecommons.org/publicdomain/zero/1.0/"><cc:permits rdf:resource="http://creativecommons.org/ns#Reproduction"/><cc:permits rdf:resource="http://creativecommons.org/ns#Distribution"/><cc:permits rdf:resource="http://creativecommons.org/ns#DerivativeWorks"/></cc:License></rdf:RDF></metadata></svg>