<?xml version="1.0" encoding="iso-8859-1"?>
<!-- Uploaded to: SVG Repo, www.svgrepo.com, Generator: SVG Repo Mixer Tools -->
<svg fill="#000000" height="800px" width="800px" version="1.1" id="Layer_1" xmlns="http://www.w3.org/2000/svg" xmlns:xlink="http://www.w3.org/1999/xlink" 
	 viewBox="0 0 512 512" xml:space="preserve">
<g>
	<g>
		<path d="M467.852,36.608C427.949,9.622,373.06,14.429,338.761,51.72c-53.134-20.741-112.466-20.704-165.495,0.001
			C129.269,3.888,53.064,10.48,17.138,63.643C-11.847,106.501-3.48,164.822,37.796,197.662
			C22.318,248.21,24.802,303.526,45.813,353.1c35.02,82.634,116.671,139.431,210.199,139.419
			c125.812,0.009,228.183-102.367,228.167-228.166c0.002-23.164-3.488-45.57-9.953-66.686
			C527.665,155.152,523.382,74.133,467.852,36.608z M50.936,164.389c-27.876-30.279-21.492-77.543,11.93-100.113
			c23.158-15.644,54.891-15.703,78.271,2.991C103.249,89.427,71.225,122.912,50.936,164.389z M155.842,225.397
			c0-9.22,7.474-16.695,16.695-16.695c9.22,0,16.695,7.475,16.695,16.695c0,9.22-7.475,16.695-16.695,16.695
			C163.316,242.092,155.842,234.617,155.842,225.397z M272.708,413.236v-19.802c9.977-5.774,16.695-16.555,16.695-28.911
			c0-18.44-14.95-33.39-33.39-33.39c-18.441,0-33.39,14.95-33.39,33.39c0,12.357,6.717,23.138,16.695,28.913v19.817
			c-36.216-5.921-66.765-31.899-66.78-65.424c0.033-36.954,37.772-66.784,83.476-66.78c45.859-0.001,83.458,29.964,83.476,66.78
			C339.458,381.377,309.002,407.299,272.708,413.236z M339.489,242.092c-9.221,0-16.695-7.475-16.695-16.695
			c0-9.22,7.474-16.695,16.695-16.695c9.22,0,16.695,7.475,16.695,16.695C356.184,234.617,348.71,242.092,339.489,242.092z
			 M370.884,67.271c19.6-15.676,45.335-18.279,66.94-9.149c42.275,17.867,54.522,72.318,23.269,106.265
			C441.223,123.78,409.645,89.944,370.884,67.271z"/>
	</g>
</g>
</svg>