<?xml version="1.0" standalone="no"?>
<!DOCTYPE svg PUBLIC "-//W3C//DTD SVG 20010904//EN"
 "http://www.w3.org/TR/2001/REC-SVG-20010904/DTD/svg10.dtd">
<svg version="1.0" xmlns="http://www.w3.org/2000/svg"
 width="830.000000pt" height="1280.000000pt" viewBox="0 0 830.000000 1280.000000"
 preserveAspectRatio="xMidYMid meet">
<metadata>
Created by potrace 1.15, written by Peter Selinger 2001-2017
</metadata>
<g transform="translate(0.000000,1280.000000) scale(0.100000,-0.100000)"
fill="#000000" stroke="none">
<path d="M1835 12445 c-27 -7 -66 -14 -86 -14 -21 -1 -69 -15 -108 -31 -55
-24 -75 -28 -88 -19 -14 8 -30 5 -72 -14 -43 -21 -57 -23 -72 -14 -18 11 -24
10 -91 -18 -13 -5 -18 -2 -18 9 0 29 -28 29 -65 1 l-35 -28 2 24 c2 17 -2 25
-17 27 -14 1 -34 -16 -70 -63 -27 -36 -57 -65 -66 -65 -9 0 -23 -8 -33 -19
-10 -11 -25 -16 -39 -14 -17 3 -26 -2 -35 -21 -6 -15 -22 -30 -35 -35 -13 -5
-34 -29 -47 -54 -21 -39 -26 -43 -36 -30 -22 31 -41 8 -47 -57 -5 -47 -12 -66
-29 -80 -22 -18 -23 -18 -31 3 -8 21 -9 21 -21 4 -8 -9 -17 -36 -21 -60 -5
-23 -9 -44 -10 -47 -1 -3 -5 -23 -9 -46 -7 -33 -12 -40 -29 -40 -15 1 -23 -6
-25 -21 -2 -13 -8 -23 -13 -23 -21 0 1 -131 27 -161 19 -21 18 -24 -16 -74
-70 -101 -132 -282 -151 -435 -20 -163 0 -299 62 -422 33 -64 193 -270 266
-340 73 -70 112 -89 138 -68 20 17 20 22 -20 125 -36 95 -65 228 -65 301 0 65
20 103 83 157 45 38 57 55 62 87 4 22 10 40 15 40 5 0 18 16 30 35 12 19 28
35 36 35 7 0 23 -18 34 -41 17 -32 19 -47 11 -72 -5 -18 -12 -73 -14 -124 -3
-53 -12 -104 -21 -121 -15 -29 -85 -72 -117 -72 -8 0 -31 -5 -51 -11 -50 -13
-50 -39 -1 -71 20 -12 47 -30 59 -38 93 -65 166 -101 231 -114 97 -21 360 -31
379 -15 10 8 14 8 14 1 0 -19 39 -35 55 -22 10 8 21 0 49 -39 20 -27 36 -54
36 -60 0 -7 4 -9 10 -6 5 3 10 19 10 36 0 16 5 29 10 29 6 0 10 -6 10 -14 0
-8 10 -22 23 -31 12 -8 29 -37 38 -63 9 -27 24 -51 36 -56 11 -5 24 -19 29
-30 5 -12 18 -21 29 -22 68 -4 65 -1 65 -50 0 -44 1 -46 25 -42 20 4 25 0 30
-23 6 -28 36 -46 56 -33 8 5 10 -33 7 -137 -3 -79 -1 -154 3 -166 8 -23 49
-33 49 -13 0 6 5 10 10 10 6 0 10 -57 11 -147 2 -212 12 -350 27 -365 10 -10
17 -10 32 0 11 6 21 12 23 12 2 0 7 -35 10 -77 9 -104 13 -122 35 -147 17 -19
19 -34 14 -172 -5 -162 2 -198 39 -192 18 3 19 -4 22 -119 2 -110 4 -124 25
-145 20 -22 22 -35 22 -119 0 -77 6 -108 29 -174 18 -52 35 -83 48 -89 17 -8
21 -24 29 -110 8 -88 11 -101 28 -105 11 -2 26 5 33 15 11 15 13 10 13 -39 0
-31 4 -89 10 -129 5 -40 12 -99 15 -131 7 -62 23 -79 56 -59 15 10 21 7 38
-14 22 -29 57 -128 67 -192 4 -24 18 -60 32 -80 14 -20 35 -67 47 -103 29 -83
52 -129 71 -136 8 -3 19 -25 25 -49 12 -45 32 -70 62 -75 12 -3 29 -32 52 -88
18 -46 37 -87 42 -90 12 -9 9 -107 -7 -240 l-14 -114 30 -27 c25 -22 33 -39
43 -101 12 -73 38 -119 67 -119 14 0 20 -15 29 -84 8 -62 22 -92 51 -110 12
-9 30 -38 40 -68 12 -36 33 -69 68 -104 28 -28 63 -65 77 -82 31 -37 27 -43
-58 -86 -28 -14 -68 -37 -89 -51 -21 -14 -63 -32 -93 -41 -92 -25 -103 -32
-193 -117 -84 -80 -86 -83 -93 -139 -7 -54 -11 -60 -63 -105 -72 -62 -104
-131 -132 -288 -12 -66 -33 -147 -47 -179 -61 -145 -23 -241 155 -403 148
-133 247 -201 270 -186 27 17 18 50 -48 171 -55 101 -134 272 -127 278 1 1 19
16 40 32 21 17 38 33 38 36 0 3 7 25 15 48 9 24 19 90 23 147 l6 104 63 -77
c35 -42 75 -82 89 -89 22 -10 28 -8 44 11 14 18 17 34 13 75 -9 88 -33 190
-59 246 -36 77 -23 100 58 101 40 0 79 23 155 92 37 33 76 67 87 74 27 17 71
18 117 2 44 -15 50 -37 42 -152 -6 -78 -5 -83 24 -128 42 -64 141 -122 193
-114 36 6 37 5 78 -59 29 -44 57 -73 88 -92 76 -44 172 -74 260 -80 75 -5 86
-4 137 21 61 30 169 139 164 166 -3 10 -13 14 -33 13 -139 -8 -223 -6 -249 8
-40 19 -64 99 -72 239 -4 59 -19 158 -35 225 -42 178 -53 258 -40 298 10 29
18 35 59 45 26 6 79 14 118 17 l71 7 69 -45 c38 -24 88 -64 112 -88 42 -42 42
-44 42 -115 0 -40 7 -90 16 -115 9 -24 18 -82 21 -129 5 -81 4 -86 -20 -108
-18 -17 -44 -26 -92 -32 -37 -5 -75 -15 -83 -24 -14 -13 -11 -19 25 -55 26
-27 56 -45 87 -53 l48 -13 -5 -140 c-3 -77 -8 -153 -11 -170 -22 -108 -34
-1058 -16 -1275 25 -296 70 -460 150 -537 28 -28 41 -33 81 -33 55 0 88 22
123 83 61 104 121 339 161 629 13 101 29 204 34 229 6 26 20 133 33 238 25
211 41 238 42 69 1 -123 -12 -396 -19 -408 -3 -5 -1 -11 5 -15 6 -4 8 -10 5
-15 -13 -22 41 -704 70 -875 2 -11 17 -139 34 -285 17 -146 33 -281 36 -300 2
-19 12 -91 20 -160 14 -111 27 -202 40 -280 2 -14 16 -92 30 -175 50 -297 142
-520 268 -652 106 -110 194 -11 217 242 33 374 38 856 12 1250 -12 174 -29
850 -36 1440 -3 278 -2 340 5 250 29 -372 40 -503 44 -530 2 -16 16 -138 30
-270 14 -132 30 -269 35 -305 6 -36 22 -150 36 -255 14 -104 27 -201 29 -215
2 -14 13 -88 25 -165 11 -77 25 -167 31 -200 5 -33 12 -69 14 -80 31 -181 99
-498 140 -649 62 -231 128 -379 223 -497 91 -114 126 -143 168 -143 86 0 125
111 154 438 17 196 10 635 -14 866 -2 19 -11 112 -21 205 -9 94 -23 215 -31
270 -8 55 -25 179 -39 275 -14 96 -38 249 -54 340 -17 91 -37 203 -45 250 -8
47 -29 164 -46 260 -17 96 -33 186 -35 200 -2 14 -13 83 -24 154 -12 71 -20
131 -17 133 4 5 158 -208 320 -443 217 -316 405 -534 461 -534 61 0 92 48 82
129 -8 66 -59 237 -102 347 -75 186 -257 542 -529 1034 -103 187 -135 267 -93
232 28 -24 152 -64 182 -59 27 4 40 -5 122 -84 92 -88 208 -171 378 -268 99
-56 162 -82 260 -107 78 -20 125 -13 166 24 44 40 49 93 15 168 -62 134 -249
411 -420 620 -188 230 -294 361 -339 421 -26 34 -59 74 -75 90 -49 51 -59 75
-66 168 -8 103 -43 415 -51 460 -37 198 -83 394 -191 815 -42 162 -78 304 -80
315 -2 11 -26 108 -53 215 -89 349 -196 637 -433 1170 -63 140 -82 175 -140
251 -16 20 -28 39 -28 42 0 15 -152 236 -202 293 -85 99 -449 403 -542 453
-58 31 -296 252 -312 290 -6 14 -34 56 -63 93 -40 53 -50 73 -45 92 5 21 -10
41 -100 135 -59 61 -106 118 -106 128 0 20 -26 47 -73 77 -27 16 -27 19 -13
35 9 10 16 22 16 28 0 13 -124 108 -262 202 -80 54 -115 84 -135 118 -16 25
-47 66 -70 92 l-41 46 39 -3 c29 -3 40 0 45 12 10 26 -20 61 -126 148 -55 45
-100 85 -100 89 0 5 5 11 10 14 35 22 -32 128 -144 228 -59 53 -76 74 -76 95
0 21 -29 57 -128 159 -111 115 -125 133 -109 142 20 13 23 37 5 44 -7 3 7 6
33 6 69 1 91 37 46 79 -54 50 -335 157 -535 202 -51 12 -112 30 -135 41 -23
10 -64 19 -91 19 -54 0 -156 43 -156 66 0 7 -8 17 -17 22 -37 19 -212 44 -305
44 -54 0 -96 4 -93 8 13 21 -33 32 -145 37 -91 5 -120 9 -120 19 0 16 -18 16
-85 -1z"/>
</g>
</svg>
