<?xml version="1.0" standalone="no"?>
<!DOCTYPE svg PUBLIC "-//W3C//DTD SVG 20010904//EN"
 "http://www.w3.org/TR/2001/REC-SVG-20010904/DTD/svg10.dtd">
<svg version="1.0" xmlns="http://www.w3.org/2000/svg"
 width="1280.000000pt" height="1237.000000pt" viewBox="0 0 1280.000000 1237.000000"
 preserveAspectRatio="xMidYMid meet">
<metadata>
Created by potrace 1.15, written by Peter Selinger 2001-2017
</metadata>
<g transform="translate(0.000000,1237.000000) scale(0.100000,-0.100000)"
fill="#000000" stroke="none">
<path d="M7640 12363 c-361 -24 -713 -78 -1086 -164 -279 -64 -641 -196 -1605
-585 -283 -114 -596 -239 -696 -279 -99 -39 -198 -83 -220 -97 -29 -20 -55
-27 -113 -31 -130 -9 -289 -78 -495 -214 -176 -116 -310 -228 -485 -403 -218
-217 -359 -411 -404 -555 -17 -52 -27 -63 -164 -183 -756 -656 -2261 -2026
-2337 -2127 -63 -82 -42 -149 120 -375 332 -462 728 -918 1085 -1250 l116
-107 169 -56 c314 -103 626 -171 1084 -237 l275 -40 55 32 c99 55 191 131 453
376 345 322 645 595 1004 914 436 387 448 397 461 390 42 -24 367 -325 568
-527 357 -356 610 -653 1090 -1280 1138 -1487 1346 -1731 2509 -2934 686 -711
736 -763 912 -951 437 -470 643 -727 982 -1230 192 -285 250 -351 362 -410
163 -85 431 -27 689 150 372 255 798 851 828 1158 5 53 2 73 -21 131 -34 88
-99 162 -326 372 -241 222 -596 576 -749 744 -233 256 -389 443 -1001 1190
-1147 1401 -1391 1677 -2481 2810 -541 562 -625 652 -818 860 -366 395 -606
681 -905 1078 l-120 158 25 23 c13 13 195 169 404 346 l380 323 66 111 c36 61
323 548 638 1081 315 534 581 982 591 996 25 35 56 140 70 237 14 94 3 168
-33 216 -12 17 -31 49 -42 71 -29 58 -140 166 -210 202 -115 60 -187 73 -395
71 -102 -1 -205 -3 -230 -5z"/>
</g>
</svg>
