<?xml version="1.0" encoding="iso-8859-1"?>
<!-- Generator: Adobe Illustrator 18.0.0, SVG Export Plug-In . SVG Version: 6.00 Build 0)  -->
<!DOCTYPE svg PUBLIC "-//W3C//DTD SVG 1.1//EN" "http://www.w3.org/Graphics/SVG/1.1/DTD/svg11.dtd">
<svg version="1.1" id="Capa_1" xmlns="http://www.w3.org/2000/svg" xmlns:xlink="http://www.w3.org/1999/xlink" x="0px" y="0px"
	 viewBox="0 0 393.957 393.957" style="enable-background:new 0 0 393.957 393.957;" xml:space="preserve">
<g>
	<g>
		<path d="M289.66,200.621c-15.379-19.117-36.473-33.092-59.881-39.818V91.475h12.762c4.143,0,7.5-3.357,7.5-7.5V53.268
			c0-4.143-3.357-7.5-7.5-7.5H219.91l3.836-37.506c0.217-2.109-0.473-4.213-1.895-5.789C220.43,0.898,218.408,0,216.285,0H177.67
			c-2.121,0-4.145,0.898-5.566,2.473c-1.422,1.576-2.109,3.68-1.895,5.789l3.836,37.506h-22.629c-4.143,0-7.5,3.357-7.5,7.5v30.707
			c0,4.143,3.357,7.5,7.5,7.5h12.762v69.328c-23.408,6.727-44.504,20.701-59.881,39.818c-16.895,21.006-26.199,47.447-26.199,74.455
			c0,65.551,53.328,118.881,118.879,118.881c65.553,0,118.883-53.33,118.883-118.881
			C315.859,248.068,306.555,221.627,289.66,200.621z M207.98,15l-3.146,30.768h-15.711L185.977,15H207.98z M158.916,76.475V60.768
			h76.125v15.707H158.916z M173.375,173.889c3.217-0.748,5.459-3.465,5.764-6.58c0.012,0.002,0.025,0.012,0.039,0.014V91.475h35.602
			v75.301l0.006-0.004c0.086,3.336,2.396,6.326,5.797,7.117c26.865,6.24,49.113,22.383,63.324,44.072H110.051
			C124.262,196.271,146.51,180.129,173.375,173.889z M196.977,378.957c-57.279,0-103.879-46.602-103.879-103.881
			c0-14.928,3.125-29.191,8.813-42.115h190.137c5.685,12.924,8.813,27.188,8.813,42.115
			C300.859,332.355,254.258,378.957,196.977,378.957z"/>
		<path d="M218.566,254.988c-8.089,0-15.515,3.148-21.587,9.027c-6.072-5.879-13.498-9.027-21.587-9.027
			c-14.973,0-28.115,10.818-31.962,26.307c-1.975,7.949-2.323,20.553,7.228,35.449c8.447,13.18,22.852,25.219,42.813,35.785
			c1.098,0.58,2.303,0.871,3.509,0.871c1.206,0,2.411-0.291,3.509-0.871c19.96-10.566,34.363-22.605,42.811-35.785
			c9.55-14.897,9.2-27.5,7.227-35.449C246.679,265.807,233.537,254.988,218.566,254.988z M157.988,284.91
			c2.147-8.646,9.467-14.922,17.404-14.922c5.914,0,11.177,3.432,15.221,9.924c1.369,2.199,3.776,3.535,6.366,3.535
			c2.59,0,4.997-1.336,6.366-3.535c4.044-6.492,9.307-9.924,15.221-9.924c7.936,0,15.254,6.275,17.401,14.922
			c1.598,6.434,3.33,28.838-38.988,52.455C154.658,313.746,156.391,291.344,157.988,284.91z"/>
	</g>
</g>
<g>
</g>
<g>
</g>
<g>
</g>
<g>
</g>
<g>
</g>
<g>
</g>
<g>
</g>
<g>
</g>
<g>
</g>
<g>
</g>
<g>
</g>
<g>
</g>
<g>
</g>
<g>
</g>
<g>
</g>
</svg>
