<?xml version="1.0" encoding="utf-8"?>
<!-- Generator: Adobe Illustrator 21.0.0, SVG Export Plug-In . SVG Version: 6.00 Build 0)  -->
<svg version="1.1" id="Layer_1" xmlns="http://www.w3.org/2000/svg" xmlns:xlink="http://www.w3.org/1999/xlink" x="0px" y="0px"
	 viewBox="0 0 60 60" style="enable-background:new 0 0 60 60;" xml:space="preserve">
<style type="text/css">
	.st0{fill:#4C5068;}
	.st1{fill:none;stroke:#858898;stroke-width:0.25;stroke-linecap:round;stroke-linejoin:round;stroke-miterlimit:10;}
</style>
<g>
	<g>
		<g>
			<g>
				<path class="st0" d="M41.7,32.1c0,0-0.1,0-0.3,0s-0.5-0.1-0.8-0.2c-0.7-0.4-1.3-0.6-2.3,0.1c-0.6,0.3-1.4,0.5-2.2,0.3
					c-0.4-0.1-0.8-0.2-1.2-0.4c-0.3-0.2-0.5-0.2-0.8-0.2c-0.1,0-0.3,0-0.4,0.1c-0.1,0-0.1,0.1-0.2,0.1c-0.1,0.1-0.2,0.1-0.3,0.2
					c-0.4,0.2-0.9,0.4-1.5,0.4c-0.5,0-1.1,0-1.6-0.2c-0.1,0-0.3-0.1-0.4-0.2l-0.3-0.2c-0.1-0.1-0.3-0.1-0.4-0.1s-0.3,0-0.4,0
					c-0.2,0.1-0.2,0.1-0.5,0.2c-0.5,0.3-1,0.4-1.5,0.4s-1-0.1-1.5-0.2c-0.2-0.1-0.5-0.2-0.7-0.3c-0.2-0.1-0.2-0.1-0.4-0.2
					c-0.3-0.1-0.5-0.1-0.8,0c-0.1,0-0.3,0.2-0.5,0.2c-0.2,0.1-0.4,0.2-0.6,0.2c-0.8,0.2-1.6,0.1-2.3-0.2c-0.3-0.1-0.6-0.4-0.8-0.4
					c-0.2-0.1-0.4-0.1-0.6-0.1c-0.4,0-0.7,0.2-1.1,0.3c-0.3,0.1-0.6,0.2-0.8,0.2c-0.2,0-0.3,0-0.3,0s0.1,0,0.3-0.1
					c0.2-0.1,0.4-0.1,0.7-0.3c0.3-0.2,0.6-0.5,1.1-0.6c0.3,0,0.5,0,0.8,0.1s0.5,0.3,0.8,0.3c0.5,0.2,1.2,0.2,1.8,0
					c0.1-0.1,0.3-0.1,0.4-0.2c0.2-0.1,0.2-0.1,0.5-0.3c0.4-0.2,0.9-0.3,1.5-0.3c0.3,0,0.5,0.1,0.8,0.3c0.2,0.1,0.3,0.2,0.5,0.2
					c0.3,0.1,0.7,0.1,1,0.1c0.4,0,0.7-0.1,1-0.3c0.1,0,0.1-0.1,0.3-0.1c0.1-0.1,0.3-0.1,0.4-0.2c0.3-0.1,0.6-0.1,0.9-0.1
					s0.6,0.1,0.9,0.2c0.3,0.2,0.4,0.2,0.6,0.3c0.3,0.1,0.7,0.2,1,0.2s0.7-0.1,1-0.2c0.2-0.1,0.3-0.1,0.5-0.3
					c0.2-0.1,0.5-0.2,0.8-0.2c0.5,0,1,0.1,1.4,0.4c0.3,0.2,0.5,0.3,0.8,0.4c0.6,0.2,1.2,0.1,1.7,0c0.1,0,0.3-0.1,0.4-0.2
					c0.1-0.1,0.3-0.1,0.4-0.2c0.3-0.1,0.6-0.1,0.8,0c0.5,0.1,0.8,0.4,1.1,0.6s0.5,0.3,0.7,0.3C41.7,32.1,41.7,32.1,41.7,32.1z"/>
			</g>
		</g>
	</g>
	<g>
		<g>
			<g>
				<path class="st0" d="M32.2,12.5c0,0,0.3,0,0.6-0.3c0.2-0.1,0.3-0.4,0.4-0.6c0-0.3,0-0.6-0.2-0.8c-0.1-0.1-0.3-0.2-0.4-0.3
					c-0.2-0.1-0.3,0-0.6,0c-0.5,0-1.1,0.1-1.7,0.1c-1.2,0-2.6,0.1-4,0.1c-0.2,0-0.2,0-0.3,0c-0.1,0-0.2,0.1-0.2,0.1
					c-0.1,0.1-0.2,0.3-0.3,0.4c-0.1,0.4,0.2,0.7,0.5,0.8c0.1,0,0.5,0,0.8,0.1c0.3,0,0.6,0,0.9,0c0.6,0,1.1,0.1,1.6,0.1
					C31,12.4,32.2,12.5,32.2,12.5s-1.2,0.2-3.1,0.4c-0.5,0-1,0.1-1.5,0.2c-0.3,0-0.6,0-0.9,0.1c-0.1,0-0.3,0-0.4,0h-0.2
					c-0.1,0-0.2,0-0.3,0c-0.9-0.1-1.7-0.9-1.7-2c0-0.5,0.2-1,0.6-1.4s1-0.6,1.4-0.5c1.4,0,2.8,0.1,4,0.1c0.6,0,1.2,0.1,1.7,0.1
					c0.2,0,0.6,0,0.9,0.2c0.3,0.1,0.5,0.3,0.7,0.6c0.3,0.5,0.3,1,0.1,1.4s-0.4,0.6-0.6,0.7C32.4,12.6,32.2,12.5,32.2,12.5z"/>
			</g>
		</g>
	</g>
	<g>
		<g>
			<g>
				<path class="st0" d="M31.5,23.2c0,0,0.3,0.1,1,0.1c0.6,0.2,1.7,0.4,2.8,1c1.2,0.6,2.6,1.5,3.9,2.8c1.3,1.4,2.5,3.2,3.3,5.5
					c0.3,1.2,0.6,2.4,0.6,3.7S43,39,42.6,40.4c-0.8,2.7-2.5,5.5-5.2,7.4c-2.6,1.9-6.1,3-9.7,2.6s-7.1-2.2-9.5-5.3
					c-1.8-2.3-2.8-5-3-7.8c-0.2-2.7,0.4-5.4,1.7-7.6c0.6-1.1,1.3-2.1,2.1-2.9c0.8-0.9,1.7-1.6,2.6-2.1c1.8-1.2,3.7-1.8,5.4-2.1
					l-0.4,0.5c0.1-5.1,0.1-8.4,0.1-10.6l0,0c0-0.2,0.2-0.4,0.4-0.4l0,0c2.6,0,3.6,0.1,4.5,0.1l0,0c0.2,0,0.3,0.1,0.3,0.3l0,0
					C31.5,20.5,31.5,23.2,31.5,23.2s-0.1-3.6-0.2-10.5l0.1,0.1c-1.3,0-2.7,0.1-4.5,0.1l0.2-0.2c0.1,3,0.1,6.5,0.2,10.6
					c0,0.2-0.1,0.4-0.3,0.4l0,0c-1.8,0.4-3.7,1.1-5.4,2.3c-0.8,0.6-1.6,1.4-2.3,2.2C18.6,29.1,18,30,17.5,31
					c-1.9,4-1.6,9.3,1.4,13.2c2.1,2.8,5.2,4.6,8.5,5c3.2,0.5,6.5-0.3,9-2s4.3-4.1,5.2-6.7c0.4-1.3,0.7-2.6,0.7-3.8
					c0-1.3-0.1-2.5-0.4-3.6c-0.6-2.3-1.7-4.1-2.9-5.5s-2.6-2.4-3.7-3c-0.6-0.3-1.1-0.5-1.6-0.8c-0.5-0.2-0.9-0.3-1.2-0.4
					C31.8,23.2,31.5,23.2,31.5,23.2z"/>
			</g>
		</g>
	</g>
	<g>
		<g>
			<g>
				<path class="st0" d="M35.9,44.3c0,0,0-0.3-0.3-0.4c-0.3-0.2-0.8,0-0.8,0.4s0.5,0.7,0.8,0.5S35.9,44.3,35.9,44.3s0.2,0.3-0.2,0.7
					c-0.2,0.2-0.5,0.4-0.9,0.3c-0.4-0.1-0.8-0.5-0.7-1c0-0.5,0.4-0.9,0.8-1c0.4-0.1,0.7,0.1,0.9,0.3C36.1,44,35.9,44.3,35.9,44.3z"
					/>
			</g>
		</g>
	</g>
	<g>
		<g>
			<g>
				<path class="st0" d="M35.1,40.1c0,0,0-0.6-0.6-1c-0.3-0.2-0.8-0.3-1.2-0.1s-0.8,0.6-0.8,1.1s0.3,1,0.7,1.2s0.9,0.1,1.2-0.1
					C35.1,40.7,35.1,40.1,35.1,40.1s0,0.1,0,0.4c0,0.2-0.1,0.6-0.5,0.9c-0.3,0.3-1,0.6-1.6,0.3c-0.6-0.2-1.2-0.9-1.2-1.7
					s0.6-1.5,1.3-1.6c0.7-0.2,1.3,0.1,1.6,0.4c0.3,0.3,0.4,0.7,0.4,0.9C35.2,40,35.1,40.1,35.1,40.1z"/>
			</g>
		</g>
	</g>
	<g>
		<g>
			<g>
				<path class="st0" d="M38.1,41.9c0,0,0-0.2-0.3-0.4c-0.2-0.1-0.6,0-0.6,0.3s0.4,0.5,0.6,0.4C38.1,42.2,38.1,41.9,38.1,41.9
					s0.2,0.2-0.1,0.6c-0.1,0.2-0.5,0.3-0.8,0.2s-0.7-0.5-0.7-0.9s0.4-0.8,0.7-0.9c0.4-0.1,0.7,0.1,0.8,0.3
					C38.3,41.7,38.1,41.9,38.1,41.9z"/>
			</g>
		</g>
	</g>
	<g>
		<g>
			<g>
				<path class="st0" d="M20.1,40.4c0,0-0.2-0.2-0.4-0.5c-0.2-0.4-0.5-0.9-0.6-1.5S19,37.2,19,36.7c0-0.4,0-0.7,0-0.7
					s0.1,0.3,0.2,0.7s0.3,0.9,0.4,1.5s0.2,1.1,0.3,1.6C20,40.2,20.1,40.4,20.1,40.4z"/>
			</g>
		</g>
	</g>
	<g>
		<g>
			<path class="st1" d="M25.3,38.7"/>
		</g>
	</g>
	<g>
		<g>
			<g>
				<path class="st0" d="M31.5,47.3c0,0-0.1,0-0.4,0.1s-0.7,0.1-1.1,0.2c-1,0.1-2.4,0-3.9-0.5c-1.5-0.6-2.6-1.6-3.3-2.3
					c-0.7-0.7-1.2-1.1-1.2-1.1s0.6,0.2,1.4,0.8s1.9,1.4,3.3,1.9c1.3,0.5,2.7,0.8,3.6,0.8C30.9,47.4,31.5,47.3,31.5,47.3z"/>
			</g>
		</g>
	</g>
	<g>
		<g>
			<g>
				<path class="st0" d="M37,28.6c0,0-0.8-0.6-1.7-1.1c-0.8-0.6-1.7-1.2-1.7-1.2s0.3,0,0.7,0.1s0.9,0.2,1.4,0.6
					c0.5,0.3,0.8,0.8,1,1.1C37,28.4,37,28.6,37,28.6z"/>
			</g>
		</g>
	</g>
	<g>
		<g>
			<g>
				<path class="st0" d="M29,26.6c0,0-0.5-0.1-1.2,0c-0.7,0-1.8,0.2-2.8,0.5c-1.1,0.4-2,0.9-2.6,1.4s-1,0.8-1,0.8s0.2-0.5,0.7-1.1
					s1.4-1.3,2.6-1.8c1.2-0.4,2.3-0.4,3.1-0.2C28.6,26.4,29,26.6,29,26.6z"/>
			</g>
		</g>
	</g>
	<g>
		<g>
			<g>
				<path class="st0" d="M39.6,39.2c0,0,0.1-0.8,0.3-1.7s0.5-1.7,0.5-1.7s0.1,0.2,0.2,0.5c0.1,0.3,0.1,0.8,0,1.3s-0.4,0.9-0.6,1.1
					C39.8,39.1,39.6,39.2,39.6,39.2z"/>
			</g>
		</g>
	</g>
	<g>
		<g>
			<g>
				<path class="st0" d="M21.5,22.2c0,0-0.5,0.3-1.3,1c-0.8,0.6-1.9,1.6-2.9,2.7c-1,1.2-1.8,2.4-2.3,3.3s-0.8,1.5-0.8,1.5
					s0.1-0.7,0.4-1.7c0.3-1,1-2.4,2.1-3.6s2.3-2.1,3.2-2.6C20.8,22.4,21.5,22.2,21.5,22.2z"/>
			</g>
		</g>
	</g>
	<g>
		<g>
			<g>
				<path class="st0" d="M45.9,33.3c0,0,0,0.2,0.1,0.6c0.1,0.4,0.1,0.9,0.1,1.6c0,1.4-0.1,3.3-0.8,5.3s-1.7,3.7-2.6,4.8
					c-0.4,0.6-0.8,1-1.1,1.3s-0.4,0.4-0.4,0.4s0.1-0.2,0.4-0.5c0.2-0.3,0.6-0.8,0.9-1.4c0.7-1.2,1.6-2.9,2.3-4.8
					c0.7-2,1-3.8,1.1-5.2c0.1-0.7,0.1-1.2,0.1-1.6C45.9,33.5,45.9,33.3,45.9,33.3z"/>
			</g>
		</g>
	</g>
	<g>
		<g>
			<g>
				<path class="st0" d="M42,28c0,0-0.2-0.5-0.6-1.2c-0.4-0.7-1-1.7-1.9-2.6s-1.8-1.6-2.6-2c-0.7-0.4-1.2-0.6-1.2-0.6
					s0.5,0.1,1.3,0.5c0.8,0.3,1.8,1,2.8,1.9c0.9,1,1.5,2,1.8,2.8C41.9,27.5,42,28,42,28z"/>
			</g>
		</g>
	</g>
	<g>
		<g>
			<g>
				<path class="st0" d="M43.6,33.3c0,0-0.2-0.5-0.2-1.2s0.2-1.2,0.2-1.2s0.3,0.5,0.3,1.2C43.8,32.8,43.6,33.3,43.6,33.3z"/>
			</g>
		</g>
	</g>
	<g>
		<g>
			<g>
				<path class="st0" d="M36.7,34.3L36.7,34.3c-0.2,0-0.3,0-0.5,0c-0.4,0-0.9,0.1-1.5,0.3s-1.4,0.5-2.2,0.8c-0.9,0.3-1.9,0.5-3,0.3
					s-2-0.5-2.9-0.8s-1.7-0.5-2.4-0.5c-0.7-0.1-1.2,0-1.6,0.1S22,34.7,22,34.7s0.2-0.1,0.5-0.3c0.4-0.1,0.9-0.3,1.6-0.3
					s1.5,0.1,2.4,0.4c0.9,0.2,1.8,0.6,2.8,0.7c2,0.4,3.8-0.6,5.1-0.9c0.7-0.2,1.2-0.2,1.6-0.1c0.2,0,0.3,0,0.4,0.1
					C36.7,34.3,36.7,34.3,36.7,34.3z"/>
			</g>
		</g>
	</g>
	<g>
		<g>
			<g>
				<path class="st0" d="M29.5,38.5c0,0-0.2,0.1-0.6,0.1c-0.4,0.1-0.9,0.1-1.5-0.1c-0.6-0.1-1.1-0.4-1.4-0.6
					c-0.3-0.2-0.5-0.4-0.5-0.4s0.9,0.4,1.9,0.6C28.5,38.4,29.5,38.5,29.5,38.5z"/>
			</g>
		</g>
	</g>
	<g>
		<g>
			<g>
				<path class="st0" d="M34.3,43c0,0-0.4,0.2-1.3,0.3c-0.8,0.1-2,0-3.1-0.6s-2-1.2-2.8-1.4c-0.4-0.1-0.7-0.1-0.9-0.1
					c-0.2,0-0.3,0.1-0.3,0.1s0.1-0.1,0.3-0.1c0.2-0.1,0.6-0.1,1-0.1c0.9,0,1.9,0.7,3,1.2s2.2,0.7,3,0.8C33.8,43.1,34.3,43,34.3,43z"
					/>
			</g>
		</g>
	</g>
	<g>
		<g>
			<g>
				<path class="st0" d="M19.2,34.7c0,0-0.2-0.3-0.2-0.8c0-0.4,0.1-0.8,0.1-0.8s0.3,0.4,0.3,0.8S19.2,34.7,19.2,34.7z"/>
			</g>
		</g>
	</g>
	<g>
		<g>
			<g>
				<path class="st0" d="M20,43.5c0,0-0.5-0.8-0.9-1.4c-0.5-0.8-0.9-1.5-0.9-1.5s0.7,0.4,1.3,1.2C20,42.7,20,43.5,20,43.5z"/>
			</g>
		</g>
	</g>
	<g>
		<g>
			<g>
				<path class="st0" d="M41.1,34.8c0,0-0.3-0.3-0.4-0.7c-0.2-0.4-0.1-0.8-0.1-0.8s0.4,0.3,0.5,0.7C41.2,34.4,41.1,34.8,41.1,34.8z"
					/>
			</g>
		</g>
	</g>
	<g>
		<g>
			<g>
				<path class="st0" d="M30.2,22.2c0,0-0.1-1.6-0.1-3.7s0.1-3.8,0.1-3.8s0.3,1.7,0.3,3.7C30.4,20.6,30.2,22.2,30.2,22.2z"/>
			</g>
		</g>
	</g>
	<g>
		<g>
			<g>
				<path class="st0" d="M32.4,25c0,0-0.4-0.1-0.8-0.3c-0.4-0.2-0.7-0.4-0.7-0.4s0.4-0.2,0.9,0C32.3,24.5,32.4,25,32.4,25z"/>
			</g>
		</g>
	</g>
</g>
</svg>
