<?xml version="1.0" encoding="iso-8859-1"?>
<!-- Uploaded to: SVG Repo, www.svgrepo.com, Generator: SVG Repo Mixer Tools -->
<svg fill="#000000" height="800px" width="800px" version="1.1" id="Layer_1" xmlns="http://www.w3.org/2000/svg" xmlns:xlink="http://www.w3.org/1999/xlink" 
	 viewBox="0 0 512 512" xml:space="preserve">
<g>
	<g>
		<path d="M507.109,262.316l-46.918-46.918V184.74c0-79.943-65.04-144.983-144.983-144.983H144.983C65.04,39.757,0,104.796,0,184.74
			s65.04,144.983,144.983,144.983h200.885l137.63,137.63c3.194,3.194,7.464,4.891,11.809,4.891c2.15,0,4.32-0.416,6.385-1.271
			c6.239-2.584,10.307-8.673,10.307-15.425V274.121C512,269.694,510.24,265.447,507.109,262.316z M163.483,89.998l-94.687,94.687
			C68.826,132.403,111.201,90.029,163.483,89.998z M289.253,279.482H163.537c-38.48,0-71.578-22.954-86.411-55.905l133.58-133.58
			h37.216l-91.659,91.659c-6.52,6.52-6.52,17.091,0,23.611c6.519,6.52,17.091,6.521,23.611,0L294.957,90.183
			c49.667,2.952,89.039,44.148,89.039,94.556C383.996,237.065,341.579,279.482,289.253,279.482z"/>
	</g>
</g>
</svg>