<?xml version="1.0" encoding="iso-8859-1"?>
<!-- Generator: Adobe Illustrator 19.0.0, SVG Export Plug-In . SVG Version: 6.00 Build 0)  -->
<svg version="1.1" id="Layer_1" xmlns="http://www.w3.org/2000/svg" xmlns:xlink="http://www.w3.org/1999/xlink" x="0px" y="0px"
	 viewBox="0 0 512 512" style="enable-background:new 0 0 512 512;" xml:space="preserve">
<g>
	<g>
		<g>
			<path d="M270.889,7.072c-7.683-9.435-22.104-9.425-29.778,0C188.88,71.214,66.464,237.176,66.464,322.464
				C66.464,426.974,151.49,512,256,512s189.537-85.026,189.537-189.537C445.537,237.147,322.549,70.511,270.889,7.072z M256,473.6
				c-83.336,0-151.136-67.8-151.136-151.136c0-64.77,98.285-204.471,151.139-272.405c52.854,67.916,151.135,207.59,151.135,272.405
				C407.136,405.802,339.338,473.6,256,473.6z"/>
			<path d="M165.382,322.464c0-0.097,0.134-10.015,10.618-34.825c4.128-9.768-0.444-21.032-10.213-25.159
				c-9.768-4.128-21.032,0.445-25.159,10.213c-11.873,28.098-13.646,43.244-13.646,49.772c0,10.599,8.588,19.18,19.187,19.187
				c0.004,0,0.008,0,0.013,0C156.775,341.651,165.368,333.058,165.382,322.464z"/>
			<path d="M256,413.082c-29.485,0-57.243-14.482-74.254-38.74c-6.088-8.681-18.061-10.784-26.743-4.696
				c-8.682,6.088-10.785,18.061-4.696,26.745c24.19,34.496,63.702,55.092,105.694,55.092c10.604,0,19.2-8.597,19.2-19.2
				C275.2,421.679,266.604,413.082,256,413.082z"/>
		</g>
	</g>
</g>
<g>
</g>
<g>
</g>
<g>
</g>
<g>
</g>
<g>
</g>
<g>
</g>
<g>
</g>
<g>
</g>
<g>
</g>
<g>
</g>
<g>
</g>
<g>
</g>
<g>
</g>
<g>
</g>
<g>
</g>
</svg>
