<?xml version='1.0' encoding='iso-8859-1'?>
<!DOCTYPE svg PUBLIC '-//W3C//DTD SVG 1.1//EN' 'http://www.w3.org/Graphics/SVG/1.1/DTD/svg11.dtd'>
<!-- Uploaded to: SVG Repo, www.svgrepo.com, Generator: SVG Repo Mixer Tools -->
<svg fill="#000000" height="800px" width="800px" version="1.1" xmlns="http://www.w3.org/2000/svg" viewBox="0 0 233.287 233.287" xmlns:xlink="http://www.w3.org/1999/xlink" enable-background="new 0 0 233.287 233.287">
  <path d="m198.299,143.196c-2.929-2.929-7.678-2.929-10.606,0l-15.577,15.577c-9.652,1.633-17.034,10.03-17.034,20.139 0,2.064 0.314,4.055 0.885,5.934-1.757,0.94-3.385,2.144-4.833,3.593-1.464,1.463-2.653,3.097-3.58,4.835-1.884-0.574-3.881-0.889-5.95-0.889-2.064,0-4.055,0.314-5.935,0.885-0.94-1.756-2.144-3.384-3.593-4.831-1.511-1.511-3.221-2.746-5.065-3.702 5.107-9.413 8.717-22.07 10.97-34.516l8.766,8.766c1.464,1.465 3.384,2.197 5.303,2.197 1.919,0 3.839-0.732 5.303-2.197 2.929-2.929 2.929-7.678 0-10.606l-16.939-16.938c0.088-1.137 0.163-2.251 0.225-3.343h8.215l14.991,14.991c1.464,1.464 3.384,2.197 5.303,2.197 1.919,0 3.839-0.732 5.303-2.197 2.929-2.929 2.929-7.678 0-10.607l-17.188-17.188c-1.406-1.407-3.314-2.197-5.303-2.197h-11.355c-0.122-1.739-0.284-3.408-0.489-5h21.983c3.461,0 6.472-2.368 7.289-5.731l9.577-39.462c4.381-5.63 5.608-13.646 3.323-22.414-2.208-8.474-7.472-17.188-14.82-24.535-9.917-9.917-22.183-15.883-32.813-15.957-3.608,0.018-6.69,2.495-7.402,6.011-0.712,3.516 1.165,7.044 4.479,8.418 2.703,1.12 5.411,2.991 7.83,5.41 6.34,6.339 6.904,12.29 6.211,13.219-0.003,0.002-0.31,0.204-1.21,0.204-2.794,0-7.592-1.981-12.018-6.406-2.421-2.421-4.292-5.128-5.409-7.827-1.372-3.316-4.902-5.196-8.417-4.483-3.517,0.711-6.037,3.814-6.013,7.402 0.072,10.625 6.037,22.891 15.957,32.813 9.981,9.981 22.3,15.945 32.968,15.965l-5.43,22.374h-19.924c-2.608-6.121-6.148-10.341-10.132-13.191v-19.13c0-4.142-3.358-7.5-7.5-7.5-4.142,0-7.5,3.358-7.5,7.5v13.957c-1.03-0.08-2.054-0.12-3.065-0.12-1.013,0-2.039,0.041-3.072,0.121v-13.96c0-4.142-3.358-7.5-7.5-7.5s-7.5,3.358-7.5,7.5v19.137c-3.981,2.85-7.519,7.069-10.125,13.186h-19.923l-5.43-22.374c10.667-0.019 22.989-5.984 32.971-15.966 9.919-9.921 15.884-22.187 15.956-32.812 0.024-3.588-2.496-6.691-6.013-7.402-3.518-0.713-7.045,1.167-8.417,4.483-1.117,2.699-2.988,5.405-5.408,7.826-4.426,4.425-9.226,6.406-12.02,6.406-0.887,0-1.198-0.197-1.201-0.197-0.701-0.936-0.137-6.887 6.205-13.228 2.415-2.417 5.123-4.287 7.828-5.408 3.314-1.374 5.192-4.902 4.479-8.418-0.708-3.498-3.784-6.01-7.349-6.01-0.017,0-0.035,0-0.052,0-10.63,0.074-22.896,6.04-32.811,15.957-15.6,15.595-20.323,35.644-11.499,46.958l9.575,39.455c0.816,3.363 3.828,5.731 7.289,5.731h21.983c-0.205,1.592-0.367,3.261-0.489,5h-11.356c-1.989,0-3.897,0.79-5.303,2.197l-17.789,17.789c-2.929,2.929-2.929,7.678 0,10.606 1.464,1.464 3.384,2.197 5.303,2.197s3.839-0.732 5.303-2.197l15.592-15.592h8.215c0.063,1.092 0.136,2.206 0.225,3.343l-16.939,16.938c-2.929,2.929-2.929,7.677 0,10.606 1.464,1.465 3.384,2.197 5.303,2.197 1.919,0 3.839-0.732 5.303-2.197l8.767-8.766c3.417,18.879 9.958,38.253 20.105,46.033-0.724,2.11-1.122,4.341-1.123,6.637-0.001,5.467 2.128,10.606 5.995,14.47 3.861,3.86 8.996,5.985 14.457,5.985 2.05,0 4.054-0.3 5.961-0.878 3.449,6.431 10.233,10.818 18.026,10.818 7.795,0 14.581-4.386 18.031-10.817 1.908,0.578 3.911,0.877 5.96,0.877 5.462,0 10.597-2.126 14.457-5.984 3.868-3.865 5.997-9.004 5.996-14.471-0.001-2.047-0.3-4.048-0.878-5.952 6.429-3.451 10.813-10.235 10.813-18.028 0-6.233-2.812-11.814-7.225-15.568l9.542-9.542c2.93-2.928 2.93-7.677 0.001-10.606zm-41.925-99.528c3.15-3.149 4.724-7.533 4.577-12.473 3.309,4.258 5.714,8.83 6.821,13.08 1.144,4.391 0.779,8.06-0.976,9.815-1.087,1.087-2.806,1.638-5.109,1.638-5.198,0-11.774-2.829-17.771-7.477 4.969,0.159 9.317-1.441 12.458-4.583zm-101.161-12.489c-0.151,4.947 1.422,9.337 4.575,12.488 3.005,3.006 7.089,4.595 11.811,4.595 0,0 0.002,0 0.002,0 0.215,0 0.431-0.004 0.647-0.01-5.997,4.648-12.573,7.477-17.771,7.477-2.304,0-4.024-0.552-5.11-1.638-3.108-3.109-1.957-12.912 5.846-22.912zm125.769,147.733c0,3.005-2.445,5.45-5.451,5.45-3.005,0-5.449-2.445-5.449-5.45 0-3.004 2.444-5.448 5.449-5.448 3.006,0 5.451,2.444 5.451,5.448zm-89.973-44.57c0.003-0.501-0.04-1.001-0.136-1.495-0.375-4.189-0.578-8.313-0.578-12.247 0-7.508 0.709-13.184 1.86-17.494 0.118-0.331 0.219-0.668 0.289-1.019 1.814-6.07 4.558-9.194 7.392-10.79 0.572-0.187 1.111-0.443 1.613-0.754 2.448-0.926 4.841-0.928 6.632-0.928 1.787,0 4.173,0.002 6.615,0.922 0.51,0.317 1.058,0.578 1.64,0.767 2.832,1.598 5.573,4.725 7.384,10.795 0.069,0.341 0.169,0.67 0.282,0.992 1.153,4.312 1.864,9.993 1.864,17.509 0,3.935-0.203,8.059-0.579,12.248-0.096,0.493-0.139,0.993-0.136,1.494-1.014,10.214-3.069,20.745-5.909,29.891-4.546,14.642-9.117,19.425-10.773,20.386-0.11,0.055-0.225,0.101-0.334,0.158-0.018,0.006-0.038,0.015-0.055,0.019-1.186-0.324-6.191-4.546-11.163-20.56-2.839-9.147-4.894-19.679-5.908-29.894zm22.753,72.41c-1.031-1.03-1.599-2.4-1.598-3.856 0-1.453 0.567-2.819 1.601-3.851 1.029-1.029 2.397-1.596 3.852-1.596 1.456,0 2.824,0.567 3.855,1.598 1.028,1.028 1.595,2.396 1.595,3.852 0,1.456-0.566,2.826-1.593,3.852-1.03,1.029-2.4,1.596-3.857,1.596-1.458-2.84217e-14-2.826-0.566-3.855-1.595zm27.841,11.535c-3.002,0-5.445-2.444-5.445-5.449 0-3.006 2.443-5.452 5.445-5.452 3.006,0 5.451,2.446 5.451,5.452 0,3.005-2.445,5.449-5.451,5.449zm27.844-11.534c-1.028,1.028-2.397,1.594-3.854,1.594-1.458,0-2.828-0.567-3.854-1.591-2.126-2.127-2.127-5.585-0.002-7.71 1.03-1.03 2.399-1.597 3.854-1.597 1.456,0 2.824,0.567 3.859,1.602 1.028,1.026 1.595,2.392 1.595,3.845 0.002,1.457-0.565,2.826-1.598,3.857z"/>
</svg>