<?xml version="1.0" encoding="iso-8859-1"?>
<!-- Uploaded to: SVG Repo, www.svgrepo.com, Generator: SVG Repo Mixer Tools -->
<svg fill="#000000" height="800px" width="800px" version="1.1" id="Layer_1" xmlns="http://www.w3.org/2000/svg" xmlns:xlink="http://www.w3.org/1999/xlink" 
	 viewBox="0 0 512.003 512.003" xml:space="preserve">
<g>
	<g>
		<path d="M416.256,365.802v-27.48c0-5.932-4.811-10.743-10.743-10.743c-5.932,0-10.743,4.811-10.743,10.743v28.065
			c-12.078,4.676-20.533,16.507-20.533,30.423v8.456c0,11.504-4.537,22.297-12.773,30.387c-8.235,8.089-19.121,12.401-30.633,12.227
			c-23.067-0.421-41.831-19.961-41.831-43.559v-16.588c0-18.585,2.36-36.862,7.02-54.413h54.459c5.932,0,10.743-4.811,10.743-10.743
			s-4.811-10.743-10.743-10.743h-49.01c1.708-7.792,3.367-16.517,5.001-26.293h44.01c5.932,0,10.743-4.811,10.743-10.743
			s-4.811-10.743-10.743-10.743h-40.684c1.189-8.235,2.354-16.864,3.583-26.293h37.101c5.932,0,10.743-4.811,10.743-10.743
			s-4.811-10.743-10.743-10.743h-34.343c0.617-4.841,1.234-9.692,1.866-14.564c0.269-2.103,0.487-4.184,0.665-6.236
			c25.852-11.566,49.03-31.717,65.793-57.39c16.23-24.856,25.861-53.995,27.611-82.987c20.121-4.729,35.149-22.815,35.149-44.359
			C447.22,4.811,442.41,0,436.478,0s-10.743,4.811-10.743,10.743c0,13.283-10.807,24.091-24.09,24.091s-24.087-10.805-24.087-24.088
			c0-5.932-4.811-10.743-10.743-10.743c-5.932,0-10.743,4.811-10.743,10.743c0,21.309,14.702,39.243,34.494,44.206
			c-3.3,48.521-31.835,94.408-71.842,116.522c-2.378-28.18-13.152-50.42-24.69-66.635c12.858-10.993,20.491-27.163,20.491-44.483
			c0-5.932-4.811-10.743-10.743-10.743s-10.743,4.811-10.743,10.743c0,10.847-4.739,20.972-12.723,27.927
			c-9.389-9.781-17.082-15.089-18.249-15.871c-0.017-0.012-0.034-0.024-0.052-0.035c-0.009-0.005-0.023-0.015-0.03-0.02
			c-0.014-0.01-0.029-0.015-0.043-0.024c-0.389-0.257-0.799-0.481-1.221-0.686c-0.081-0.04-0.16-0.08-0.242-0.116
			c-0.434-0.198-0.88-0.372-1.343-0.511c-0.035-0.011-0.073-0.017-0.11-0.028c-0.413-0.119-0.836-0.211-1.267-0.279
			c-0.106-0.017-0.214-0.035-0.321-0.049c-0.46-0.06-0.926-0.102-1.402-0.102c-0.005,0-0.011,0.001-0.017,0.001
			s-0.011-0.001-0.017-0.001c-0.489,0-0.967,0.044-1.437,0.107c-0.059,0.008-0.117,0.017-0.176,0.027
			c-0.461,0.07-0.911,0.173-1.35,0.299c-0.003,0.001-0.006,0.001-0.009,0.002c-0.03,0.009-0.061,0.014-0.092,0.024
			c-0.089,0.027-0.172,0.07-0.26,0.099c-0.356,0.116-0.705,0.246-1.042,0.397c-0.014,0.006-0.029,0.01-0.043,0.016
			c-0.082,0.038-0.162,0.078-0.244,0.117c-0.026,0.013-0.049,0.029-0.074,0.042c-0.345,0.171-0.679,0.358-1.002,0.563
			c-0.04,0.025-0.085,0.044-0.124,0.07c-0.02,0.013-0.042,0.021-0.061,0.034c-0.009,0.005-0.029,0.019-0.044,0.029
			c-0.008,0.005-0.014,0.01-0.021,0.015c-0.068,0.045-0.177,0.12-0.329,0.225c-1.769,1.226-9.103,6.511-17.918,15.725
			c-8.037-6.952-12.805-17.097-12.805-27.995c0-5.932-4.811-10.743-10.743-10.743s-10.743,4.811-10.743,10.743
			c0,17.395,7.671,33.588,20.599,44.575c-11.342,15.991-22.291,38.303-24.714,66.602c-40.057-22.1-68.626-68.018-71.928-116.581
			c19.792-4.963,34.494-22.897,34.494-44.206C155.938,4.811,151.127,0,145.195,0c-5.932,0-10.743,4.811-10.743,10.743
			c0,13.283-10.807,24.091-24.091,24.091c-13.283,0-24.094-10.805-24.094-24.088c0-5.932-4.811-10.743-10.743-10.743
			S64.783,4.813,64.783,10.745c0,21.543,15.029,39.63,35.149,44.359c1.751,29.008,11.387,58.16,27.63,83.023
			c16.775,25.678,39.969,45.827,65.842,57.389c0.178,2.046,0.398,4.122,0.667,6.222c0.628,4.851,1.246,9.702,1.863,14.542h-34.275
			c-5.932,0-10.743,4.811-10.743,10.743c0,5.932,4.811,10.743,10.743,10.743h37.033c1.231,9.441,2.396,18.073,3.582,26.293h-40.615
			c-5.932,0-10.743,4.811-10.743,10.743c0,5.932,4.811,10.743,10.743,10.743h43.94c1.64,9.824,3.293,18.511,5.002,26.293h-48.942
			c-5.932,0-10.743,4.811-10.743,10.743s4.811,10.743,10.743,10.743h54.457c5.819,20.096,8.777,40.487,8.777,60.635v10.034
			c0,59.017,47.431,107.47,105.735,108.009c0.33,0.002,0.652,0.004,0.982,0.004c28.296-0.001,54.936-10.974,75.101-30.958
			c20.399-20.218,31.634-47.129,31.634-75.777v-8.967c0-8.779-3.481-16.972-9.803-23.072
			C424.986,369.797,420.803,367.284,416.256,365.802z M416.863,405.266h-0.002c0,22.872-8.976,44.364-25.273,60.517
			c-16.113,15.968-37.386,24.733-59.98,24.733c-0.26,0-0.523-0.001-0.783-0.004c-46.564-0.43-84.445-39.244-84.445-86.524v-10.034
			c0-22.723-3.398-45.689-10.1-68.263c-3.911-13.145-7.379-29.841-10.917-52.55c-2.195-14.055-4.179-28.866-6.468-46.694
			c-0.031-0.576-0.098-1.141-0.216-1.688l-1.211-9.483c-0.691-5.423-1.383-10.864-2.085-16.287
			c-0.495-3.861-0.812-7.627-0.944-11.214c-1.393-36.171,14.077-62.581,27.3-78.364c1.202-1.434,2.389-2.779,3.557-4.056v130.274
			c0,5.932,4.811,10.743,10.743,10.743c5.932,0,10.743-4.811,10.743-10.743V105.356c2.693,2.949,5.512,6.31,8.304,10.09
			c15.767,21.343,23.346,45.318,22.569,71.285c-0.099,0.713-0.122,1.438-0.074,2.167c-0.153,3.24-0.444,6.624-0.884,10.077
			c-0.696,5.369-1.38,10.743-2.063,16.098c-0.45,3.536-0.899,7.065-1.351,10.584c-2.326,18.146-4.333,33.164-6.57,47.491
			c-3.002,19.284-6.028,34.549-9.259,46.685c-0.35,1.327-0.711,2.621-1.065,3.871c-5.886,20.582-8.87,42.126-8.87,64.031v16.588
			c0,35.232,28.227,64.409,62.929,65.041c17.33,0.315,33.693-6.218,46.076-18.38c12.383-12.163,19.203-28.399,19.203-45.716v-8.456
			c0-5.907,4.563-10.876,10.172-11.076c0.001-0.001,0.001-0.001,0.002-0.001c2.915-0.097,5.645,0.946,7.727,2.955
			c2.086,2.013,3.236,4.716,3.236,7.61V405.266z"/>
	</g>
</g>
<g>
	<g>
		<path d="M256.037,260.259c-5.932,0-10.743,4.811-10.743,10.743v11.762c0,5.932,4.811,10.743,10.743,10.743
			c5.932,0,10.743-4.811,10.743-10.743v-11.762C266.78,265.068,261.969,260.259,256.037,260.259z"/>
	</g>
</g>
</svg>