<?xml version="1.0" encoding="iso-8859-1"?>
<!-- Uploaded to: SVG Repo, www.svgrepo.com, Generator: SVG Repo Mixer Tools -->
<svg fill="#000000" height="800px" width="800px" version="1.1" id="Layer_1" xmlns="http://www.w3.org/2000/svg" xmlns:xlink="http://www.w3.org/1999/xlink" 
	 viewBox="0 0 512.009 512.009" xml:space="preserve">
<g>
	<g>
		<path d="M171.972,46.681c-22.895,0-36.573,39.645-36.573,77.973c0,2.662,1.241,5.17,3.347,6.787
			c1.515,1.164,3.355,1.772,5.212,1.772c0.736,0,1.472-0.094,2.2-0.282c14.114-3.749,29.477-6.753,45.637-8.927
			c4.254-0.565,7.421-4.194,7.421-8.482C199.207,69.842,190.049,46.681,171.972,46.681z M152.92,113.621
			c2.208-29.777,12.941-49.822,19.052-49.822c2.525,0,9.167,10.707,10.031,44.319C171.955,109.649,162.223,111.481,152.92,113.621z"
			/>
	</g>
</g>
<g>
	<g>
		<path d="M460.65,185.97c0-30.838-36.453-57.072-100.003-71.981c-37.026-8.687-80.977-12.513-124.268-10.904
			C234.033,44.644,206.585,0,171.972,0c-49.411,0-72.649,68.318-73.873,133.794c-31.437,15.03-46.741,32.122-46.741,52.176
			c0,2.191-0.171,9.757,0.274,11.486l65.485,252.542c11.529,36.513,68.643,62.01,138.887,62.01
			c72.88,0,128.727-25.044,139.007-62.438l65.365-252.114C460.821,195.727,460.65,188.161,460.65,185.97z M378.484,445.154
			c-6.796,24.718-51.055,49.736-122.479,49.736c-70.09,0-114.708-25.172-122.445-49.617l-14.987-57.816
			c31.831,25.403,81.85,40.51,137.432,40.51c53.006,0,105.464-16.288,137.646-41.314L378.484,445.154z M402.355,353.068l-3.74,4.87
			c-23.537,30.658-83.519,52.912-142.61,52.912c-62.061,0-118.037-20.679-142.61-52.681l-3.646-4.75l-12.582-48.521
			c36.658,21.295,98.994,40.381,158.624,38.961c2.165,0.051,4.322,0.077,6.496,0.077c58.021,0,117.224-18.496,152.556-39.038
			L402.355,353.068z M421.304,279.982l-2.379,1.797c-30.376,22.981-98.009,46.458-163.126,44.952
			c-64.929,1.583-132.322-21.98-162.698-44.952l-2.388-1.806l-13.771-53.134c34.613,25.48,101.082,42.384,179.072,42.384
			c4.733,0,8.559-3.826,8.559-8.559c0-61.163,26.011-112.825,56.806-112.825c25.283,0,47.468,45.234,47.468,96.802
			c0,2.705,1.275,5.255,3.449,6.873c2.174,1.618,4.981,2.097,7.575,1.327c23.007-6.924,41.58-15.646,55.111-25.591L421.304,279.982z
			 M385.622,232.976c-3.329-57.354-30.864-102.246-64.252-102.246c-39.799,0-71.322,52.612-73.77,121.315
			c-105.986-1.712-179.123-35.588-179.123-66.076c0-13.429,14.011-26.516,41.622-38.866c3.081-1.378,5.067-4.442,5.067-7.814
			c0-59.228,19.908-122.171,56.806-122.171c25.728,0,47.468,43.112,47.468,94.149v0.762c0,2.345,0.967,4.596,2.679,6.222
			c1.712,1.609,4.014,2.465,6.351,2.32c9.038-0.496,18.308-0.745,27.534-0.745c35.708,0,70.535,3.749,100.74,10.827
			c52.723,12.368,86.797,34.082,86.797,55.317C443.532,202.772,421.63,220.352,385.622,232.976z"/>
	</g>
</g>
<g>
	<g>
		<path d="M321.369,177.411c-22.895,0-36.564,30.624-36.564,81.91c0,4.733,3.826,8.559,8.559,8.559c12.667,0,37.42-2.79,50.293-8.79
			c3.021-1.404,4.947-4.434,4.947-7.754C348.596,214.78,345.36,177.411,321.369,177.411z M302.086,250.385
			c1.232-32.404,9.107-55.856,19.283-55.856c0.103,0,9.406,0.608,10.074,50.9C323.347,247.929,311.604,249.666,302.086,250.385z"/>
	</g>
</g>
</svg>