<?xml version="1.0" ?>
<!DOCTYPE svg  PUBLIC '-//W3C//DTD SVG 1.1//EN'  'http://www.w3.org/Graphics/SVG/1.1/DTD/svg11.dtd'>
<!-- Uploaded to: SVG Repo, www.svgrepo.com, Generator: SVG Repo Mixer Tools -->
<svg fill="#000000" width="800px" height="800px" viewBox="0 0 512 512" version="1.1" xml:space="preserve" xmlns="http://www.w3.org/2000/svg" xmlns:xlink="http://www.w3.org/1999/xlink">
<g id="_x35_89_x2C__Drugs_x2C__medicine_x2C__pills_x2C__tablets">
<g>
<g>
<g>
<g>
<path d="M371.813,263.628c-2.56,0-5.118-0.977-7.071-2.929L251.604,147.562c-3.905-3.905-3.905-10.237,0-14.142l87.926-87.927       c21.949-21.948,50.845-34.537,79.277-34.537c22.958,0,43.936,8.335,59.07,23.469c35.091,35.091,30.127,97.153-11.066,138.347       l-87.928,87.928C376.932,262.651,374.371,263.628,371.813,263.628z M272.818,140.491l98.994,98.995l80.856-80.856       c33.396-33.396,38.359-82.77,11.066-110.062c-11.356-11.357-27.313-17.611-44.928-17.611       c-23.168,0-46.909,10.453-65.135,28.679L272.818,140.491z"/>
</g>
<g>
<path d="M140.882,310.956c-2.559,0-5.119-0.977-7.071-2.929L45.883,220.1c-19.722-19.722-31.848-44.787-34.146-70.578       c-2.358-26.461,5.838-50.528,23.08-67.769c15.133-15.134,36.112-23.469,59.07-23.469c28.433,0,57.328,12.588,79.276,34.536       l87.927,87.927c3.905,3.905,3.905,10.237,0,14.142L147.953,308.027C146,309.979,143.441,310.956,140.882,310.956z        M93.887,78.284c-17.616,0-33.572,6.254-44.928,17.61c-27.293,27.293-22.328,76.667,11.067,110.063l80.856,80.855       l98.995-98.995l-80.856-80.856C140.795,88.737,117.055,78.284,93.887,78.284z"/>
</g>
<g>
<path d="M261.348,300.956c-16.542,0-30-13.458-30-30s13.458-30,30-30c16.542,0,30,13.458,30,30S277.89,300.956,261.348,300.956       z M261.348,260.956c-5.514,0-10,4.486-10,10s4.486,10,10,10c5.514,0,10-4.486,10-10S266.861,260.956,261.348,260.956z"/>
</g>
<g>
<path d="M321.348,360.956c-16.542,0-30-13.458-30-30s13.458-30,30-30s30,13.458,30,30S337.89,360.956,321.348,360.956z        M321.348,320.956c-5.514,0-10,4.486-10,10s4.486,10,10,10s10-4.486,10-10S326.861,320.956,321.348,320.956z"/>
</g>
<g>
<path d="M201.347,360.956c-16.542,0-30-13.458-30-30s13.458-30,30-30s30,13.458,30,30S217.889,360.956,201.347,360.956z        M201.347,320.956c-5.514,0-10,4.486-10,10s4.486,10,10,10s10-4.486,10-10S206.861,320.956,201.347,320.956z"/>
</g>
<g>
<path d="M261.348,420.956c-16.542,0-30-13.458-30-30s13.458-30,30-30c16.542,0,30,13.458,30,30S277.89,420.956,261.348,420.956       z M261.348,380.956c-5.514,0-10,4.486-10,10s4.486,10,10,10c5.514,0,10-4.486,10-10S266.861,380.956,261.348,380.956z"/>
</g>
<g>
<path d="M221.347,500.956c-16.542,0-30-13.458-30-30s13.458-30,30-30s30,13.458,30,30S237.889,500.956,221.347,500.956z        M221.347,460.956c-5.514,0-10,4.486-10,10s4.486,10,10,10s10-4.486,10-10S226.861,460.956,221.347,460.956z"/>
</g>
<g>
<path d="M301.348,500.956c-16.542,0-30-13.458-30-30s13.458-30,30-30s30,13.458,30,30S317.89,500.956,301.348,500.956z        M301.348,460.956c-5.514,0-10,4.486-10,10s4.486,10,10,10s10-4.486,10-10S306.861,460.956,301.348,460.956z"/>
</g>
</g>
</g>
</g>
</g>
<g id="Layer_1"/>
</svg>