<?xml version="1.0" encoding="iso-8859-1"?>
<!-- Uploaded to: SVG Repo, www.svgrepo.com, Generator: SVG Repo Mixer Tools -->
<!DOCTYPE svg PUBLIC "-//W3C//DTD SVG 1.1//EN" "http://www.w3.org/Graphics/SVG/1.1/DTD/svg11.dtd">
<svg fill="#000000" version="1.1" id="Capa_1" xmlns="http://www.w3.org/2000/svg" xmlns:xlink="http://www.w3.org/1999/xlink" 
	 width="800px" height="800px" viewBox="0 0 531.377 531.377"
	 xml:space="preserve">
<g>
	<g>
		<path d="M230.384,163.802c-24.21,16.142-77.372-3.183-77.372-3.183l75.714,87.503h17.032l75.711-87.503
			C321.469,160.619,254.595,147.66,230.384,163.802z"/>
		<path d="M406.366,0c-39.98,0-72.697,31.354-75.061,70.749H55.771c-2.374,0-4.522,1.387-5.5,3.535
			c-0.987,2.16-0.629,4.69,0.925,6.478L219.083,274.78v212.551c-17.6,1.489-30.104,5.196-30.104,9.552
			c0,0.42,0.145,0.816,0.363,1.212c-21.834,3.298-36.153,8.795-36.153,15.007c0,10.096,37.628,18.276,84.051,18.276
			s84.057-8.181,84.057-18.276c0-6.4-15.154-12.01-38.064-15.273c0.124-0.307,0.218-0.626,0.218-0.945
			c0-4.173-11.562-7.743-28.052-9.351v-212.74l115.278-133.22c10.935,5.898,23.176,9.005,35.689,9.005
			c41.517,0,75.291-33.774,75.291-75.288C481.657,33.774,447.888,0,406.366,0z M251.308,261.019h-28.12L69.014,82.854h336.465
			L251.308,261.019z M406.366,138.471c-9.582,0-18.933-2.27-27.474-6.398l44.396-51.32c1.555-1.785,1.915-4.315,0.929-6.475
			c-0.981-2.149-3.139-3.535-5.503-3.535H343.41c2.347-32.707,29.648-58.644,62.956-58.644c34.838,0,63.186,28.351,63.186,63.184
			C469.551,110.115,441.204,138.471,406.366,138.471z"/>
	</g>
</g>
</svg>