<?xml version="1.0" encoding="utf-8"?>
<!-- Svg Vector Icons : http://www.onlinewebfonts.com/icon -->
<!DOCTYPE svg PUBLIC "-//W3C//DTD SVG 1.1//EN" "http://www.w3.org/Graphics/SVG/1.1/DTD/svg11.dtd">
<svg version="1.1" xmlns="http://www.w3.org/2000/svg" xmlns:xlink="http://www.w3.org/1999/xlink" x="0px" y="0px" viewBox="0 0 1000 1000" enable-background="new 0 0 1000 1000" xml:space="preserve">
<metadata> Svg Vector Icons : http://www.onlinewebfonts.com/icon </metadata>
<g><g><g><path d="M700.8,337.2c0,0,252.4-376.3-381.8-321.8c-4.6,5.3,0.9-2.8-12,13.9C829.4,50.5,700.8,337.2,700.8,337.2z"/><path d="M723.9,462.9c80.5,40.7-33.3,61.9-57.3,55c-81.4-43,171-337-137.9-438.7c189.7,111.9,100,248.7,100,248.7s60.1-234.8-328.2-282c69.3,35.1,60.5,51.8,108.2,67.5C618.5,165.2,527,335.4,517.7,366.8C423.4,524,206.1,553.5,216.3,744c10.2,190.5,232.1,151.3,215.4,41.6c-74,66.6-146.1-52.7-103.6-135.9c43.4-85.8,105.8-128.6,155.6-176.2c-64.5,109.8-131.5,126.8-137.5,167.6c-25,137.8,75.3,111.1,75.3,111.1s-99-60.1,0-155.3c-44.4,212.7,215.4,339.4-2.8,393c265.4,4.7,95.2-236.7,83.2-266.3c-42.5-151.6,71.6-328.4,79.5-461.4c59.6,38.7-111.9,336.6-58.3,423.5c53.6,86.9,107.3,8.3,123.9,1.9c-145.1,36-59.2-159-59.2-159s66.6,99.9,156.3,30.5C834,489.7,747.1,432.4,723.9,462.9z"/></g></g><g></g><g></g><g></g><g></g><g></g><g></g><g></g><g></g><g></g><g></g><g></g><g></g><g></g><g></g><g></g></g>
</svg>